<?xml version="1.0" encoding="utf-8"?>
<!-- Generator: Adobe Illustrator 27.6.1, SVG Export Plug-In . SVG Version: 6.00 Build 0)  -->
<svg version="1.1" id="Camada_1" xmlns="http://www.w3.org/2000/svg" xmlns:xlink="http://www.w3.org/1999/xlink" x="0px" y="0px"
	 viewBox="0 0 600 200" style="enable-background:new 0 0 600 200;" xml:space="preserve">
<style type="text/css">
	.st0{fill:#FFFFFF;}
</style>
<g>
	<g>
		<g>
			<path class="st0" d="M232,139.37h3.53v16.55c0,2.84,0.53,4.97,1.59,6.37c1.06,1.41,2.82,2.11,5.28,2.11
				c2.48,0,4.24-0.71,5.26-2.13c1.02-1.42,1.54-3.54,1.54-6.35v-16.55h3.53v16.55c0,2.05-0.24,3.79-0.71,5.24
				c-0.47,1.45-1.15,2.64-2.04,3.59c-0.88,0.95-1.97,1.64-3.26,2.07c-1.29,0.44-2.75,0.65-4.36,0.65c-3.3,0-5.85-0.92-7.66-2.76
				c-1.81-1.84-2.71-4.82-2.71-8.95V139.37z"/>
			<path class="st0" d="M258.03,146.94h3.3v3.03c0.97-1.31,2.05-2.24,3.23-2.8c1.18-0.56,2.42-0.84,3.72-0.84
				c2.25,0,3.92,0.62,5.01,1.84c1.09,1.23,1.63,3.03,1.63,5.41v13.21h-3.34v-12.56c0-1.84-0.33-3.14-1-3.9
				c-0.67-0.76-1.69-1.13-3.07-1.13c-0.74,0-1.48,0.13-2.21,0.38c-0.73,0.26-1.39,0.67-1.98,1.23c-0.64,0.56-1.13,1.16-1.46,1.79
				c-0.33,0.63-0.5,1.44-0.5,2.44v11.75h-3.34V146.94z"/>
			<path class="st0" d="M288.82,167.4c-1.51,0-2.85-0.24-4.03-0.73c-1.18-0.49-2.18-1.18-2.99-2.07s-1.45-2-1.88-3.3
				c-0.44-1.31-0.65-2.76-0.65-4.38c0-1.61,0.23-3.07,0.69-4.38c0.46-1.31,1.11-2.42,1.96-3.34c0.85-0.92,1.86-1.63,3.05-2.13
				c1.19-0.5,2.51-0.75,3.97-0.75c1.48,0,2.82,0.24,3.99,0.73c1.18,0.49,2.18,1.18,3.01,2.09c0.83,0.91,1.47,2,1.9,3.28
				c0.43,1.28,0.65,2.73,0.65,4.34c0,1.64-0.22,3.11-0.67,4.42c-0.45,1.3-1.09,2.42-1.92,3.34c-0.83,0.92-1.85,1.63-3.05,2.13
				C291.65,167.15,290.3,167.4,288.82,167.4z M288.86,164.64c1.07,0,2-0.19,2.76-0.58c0.77-0.38,1.4-0.92,1.9-1.61
				c0.5-0.69,0.86-1.52,1.09-2.48c0.23-0.96,0.35-2.02,0.35-3.17c0-1.12-0.11-2.16-0.35-3.11c-0.23-0.95-0.59-1.76-1.09-2.44
				c-0.5-0.68-1.13-1.21-1.9-1.59s-1.69-0.58-2.76-0.58c-1.08,0-1.99,0.19-2.75,0.58c-0.76,0.38-1.38,0.92-1.88,1.59
				c-0.5,0.68-0.86,1.49-1.09,2.44c-0.23,0.95-0.35,2-0.35,3.15s0.11,2.2,0.35,3.15c0.23,0.95,0.59,1.77,1.07,2.46
				c0.49,0.69,1.11,1.23,1.88,1.61C286.86,164.44,287.78,164.64,288.86,164.64z"/>
			<path class="st0" d="M320.19,160.07c-0.33,2.28-1.2,4.07-2.61,5.38c-1.41,1.3-3.39,1.96-5.95,1.96c-1.51,0-2.85-0.24-4.01-0.73
				c-1.16-0.49-2.14-1.18-2.92-2.09c-0.78-0.91-1.37-2.01-1.77-3.3c-0.4-1.29-0.59-2.75-0.59-4.36c0-1.59,0.22-3.03,0.65-4.34
				c0.44-1.31,1.06-2.42,1.88-3.34c0.82-0.92,1.82-1.64,2.99-2.15c1.18-0.51,2.51-0.77,3.99-0.77c2.38,0,4.22,0.58,5.53,1.75
				c1.31,1.16,2.14,2.77,2.5,4.82l-3.34,0.61c-0.13-0.64-0.3-1.23-0.52-1.77c-0.22-0.54-0.52-1-0.9-1.4s-0.85-0.7-1.4-0.92
				c-0.55-0.22-1.21-0.33-1.98-0.33c-1.05,0-1.95,0.2-2.69,0.59c-0.74,0.4-1.35,0.95-1.82,1.65c-0.47,0.7-0.82,1.53-1.04,2.48
				c-0.22,0.95-0.33,1.96-0.33,3.03s0.1,2.09,0.31,3.03c0.2,0.95,0.54,1.77,1,2.48s1.06,1.26,1.8,1.67
				c0.74,0.41,1.65,0.62,2.73,0.62c1.61,0,2.81-0.41,3.59-1.23c0.78-0.82,1.29-1.93,1.52-3.34H320.19z"/>
			<path class="st0" d="M324.45,139.37h3.34v10.52c0.97-1.25,2.04-2.16,3.21-2.73c1.16-0.56,2.4-0.84,3.7-0.84
				c2.25,0,3.92,0.62,5.01,1.84c1.09,1.23,1.63,3.03,1.63,5.41v13.21h-3.38v-12.56c0-1.84-0.33-3.14-0.98-3.9s-1.67-1.13-3.05-1.13
				c-0.74,0-1.48,0.13-2.21,0.38c-0.73,0.26-1.39,0.67-1.98,1.23c-0.64,0.56-1.13,1.16-1.46,1.79c-0.33,0.63-0.5,1.44-0.5,2.44
				v11.75h-3.34V139.37z"/>
			<path class="st0" d="M358.7,164.06c-0.72,0.87-1.63,1.62-2.73,2.25c-1.1,0.63-2.47,0.94-4.11,0.94c-1,0-1.91-0.12-2.75-0.36
				c-0.83-0.24-1.55-0.62-2.15-1.11c-0.6-0.5-1.07-1.12-1.4-1.86c-0.33-0.74-0.5-1.61-0.5-2.61c0-1.36,0.29-2.46,0.86-3.3
				c0.58-0.84,1.34-1.51,2.3-2c0.96-0.49,2.04-0.83,3.25-1.04c1.2-0.2,2.44-0.33,3.72-0.38l3.42-0.11v-0.77
				c0-1.69-0.36-2.9-1.07-3.65c-0.72-0.74-1.88-1.11-3.49-1.11c-1.59,0-2.75,0.26-3.49,0.79c-0.74,0.53-1.23,1.25-1.46,2.17
				l-3.03-0.35c0.36-1.82,1.21-3.14,2.57-3.97c1.36-0.83,3.2-1.25,5.53-1.25c1.43,0,2.64,0.17,3.63,0.52
				c0.98,0.35,1.79,0.84,2.4,1.48c0.61,0.64,1.06,1.43,1.32,2.38c0.27,0.95,0.4,2.01,0.4,3.19v12.9h-3.23V164.06z M358.62,156.84
				l-3.19,0.12c-1.36,0.05-2.48,0.18-3.38,0.38c-0.9,0.21-1.61,0.48-2.13,0.83c-0.53,0.35-0.9,0.77-1.11,1.29
				c-0.22,0.51-0.33,1.1-0.33,1.77c0,1,0.3,1.8,0.9,2.4c0.6,0.6,1.59,0.9,2.98,0.9c1.97,0,3.51-0.49,4.61-1.46
				c1.1-0.97,1.65-2.3,1.65-3.99V156.84z"/>
			<path class="st0" d="M366.99,146.94h3.3v2.84c0.82-1.13,1.77-1.98,2.86-2.57c1.09-0.59,2.36-0.88,3.82-0.88
				c1.41,0,2.64,0.26,3.7,0.77c1.06,0.51,1.95,1.23,2.65,2.15c0.7,0.92,1.23,2.02,1.57,3.28c0.35,1.27,0.52,2.67,0.52,4.2
				c0,1.64-0.2,3.12-0.61,4.43c-0.41,1.32-1,2.44-1.77,3.36s-1.7,1.63-2.78,2.13c-1.09,0.5-2.31,0.75-3.67,0.75
				c-1.13,0-2.23-0.22-3.32-0.67c-1.09-0.45-2.07-1.25-2.94-2.4v9.9h-3.34V146.94z M370.29,157.42c0,1.28,0.15,2.37,0.44,3.28
				c0.29,0.91,0.7,1.66,1.21,2.25c0.51,0.59,1.13,1.02,1.84,1.29c0.72,0.27,1.5,0.4,2.34,0.4c0.82,0,1.58-0.14,2.28-0.42
				s1.31-0.74,1.82-1.36c0.51-0.63,0.92-1.44,1.21-2.44s0.44-2.21,0.44-3.65c0-1.46-0.16-2.68-0.48-3.67
				c-0.32-0.98-0.74-1.77-1.25-2.36c-0.51-0.59-1.09-1.01-1.75-1.27c-0.65-0.26-1.33-0.38-2.02-0.38c-0.87,0-1.68,0.15-2.42,0.44
				c-0.74,0.29-1.39,0.73-1.94,1.3c-0.55,0.58-0.98,1.31-1.29,2.19c-0.31,0.88-0.46,1.9-0.46,3.05V157.42z"/>
			<path class="st0" d="M407.08,161.22c-0.33,1.92-1.18,3.43-2.55,4.53c-1.37,1.1-3.34,1.65-5.89,1.65c-3.02,0-5.34-0.91-6.95-2.74
				c-1.61-1.83-2.42-4.38-2.42-7.66c0-1.71,0.23-3.24,0.69-4.57c0.46-1.33,1.11-2.44,1.94-3.34c0.83-0.9,1.82-1.58,2.98-2.05
				c1.15-0.47,2.41-0.71,3.76-0.71c1.54,0,2.85,0.24,3.96,0.73c1.1,0.49,2,1.16,2.71,2.02c0.7,0.86,1.23,1.87,1.57,3.05
				c0.35,1.18,0.52,2.47,0.52,3.88v1.69h-14.74c0,1,0.13,1.93,0.4,2.78s0.65,1.6,1.15,2.23c0.5,0.63,1.12,1.12,1.86,1.48
				c0.74,0.36,1.6,0.54,2.57,0.54c1.66,0,2.88-0.31,3.65-0.94c0.77-0.63,1.29-1.48,1.57-2.55H407.08z M404.04,155.19
				c0-0.95-0.1-1.81-0.31-2.57c-0.21-0.77-0.53-1.43-0.96-1.98s-1-0.98-1.69-1.29c-0.69-0.31-1.52-0.46-2.5-0.46
				c-1.77,0-3.14,0.54-4.13,1.61c-0.98,1.07-1.57,2.64-1.75,4.68H404.04z"/>
			<path class="st0" d="M429,160.07c-0.33,2.28-1.2,4.07-2.61,5.38c-1.41,1.3-3.39,1.96-5.95,1.96c-1.51,0-2.85-0.24-4.01-0.73
				c-1.16-0.49-2.14-1.18-2.92-2.09c-0.78-0.91-1.37-2.01-1.77-3.3c-0.4-1.29-0.59-2.75-0.59-4.36c0-1.59,0.22-3.03,0.65-4.34
				c0.44-1.31,1.06-2.42,1.88-3.34c0.82-0.92,1.82-1.64,2.99-2.15c1.18-0.51,2.51-0.77,3.99-0.77c2.38,0,4.22,0.58,5.53,1.75
				c1.31,1.16,2.14,2.77,2.5,4.82l-3.34,0.61c-0.13-0.64-0.3-1.23-0.52-1.77c-0.22-0.54-0.52-1-0.9-1.4s-0.85-0.7-1.4-0.92
				c-0.55-0.22-1.21-0.33-1.98-0.33c-1.05,0-1.95,0.2-2.69,0.59c-0.74,0.4-1.35,0.95-1.82,1.65c-0.47,0.7-0.82,1.53-1.04,2.48
				c-0.22,0.95-0.33,1.96-0.33,3.03s0.1,2.09,0.31,3.03c0.2,0.95,0.54,1.77,1,2.48s1.06,1.26,1.8,1.67
				c0.74,0.41,1.65,0.62,2.73,0.62c1.61,0,2.81-0.41,3.59-1.23c0.78-0.82,1.29-1.93,1.52-3.34H429z"/>
			<path class="st0" d="M441.78,167.4c-1.51,0-2.85-0.24-4.03-0.73c-1.18-0.49-2.18-1.18-2.99-2.07s-1.45-2-1.88-3.3
				c-0.44-1.31-0.65-2.76-0.65-4.38c0-1.61,0.23-3.07,0.69-4.38c0.46-1.31,1.11-2.42,1.96-3.34c0.85-0.92,1.86-1.63,3.05-2.13
				c1.19-0.5,2.51-0.75,3.97-0.75c1.48,0,2.82,0.24,3.99,0.73c1.18,0.49,2.18,1.18,3.01,2.09c0.83,0.91,1.47,2,1.9,3.28
				c0.43,1.28,0.65,2.73,0.65,4.34c0,1.64-0.22,3.11-0.67,4.42c-0.45,1.3-1.09,2.42-1.92,3.34c-0.83,0.92-1.85,1.63-3.05,2.13
				C444.61,167.15,443.27,167.4,441.78,167.4z M441.82,164.64c1.07,0,2-0.19,2.76-0.58c0.77-0.38,1.4-0.92,1.9-1.61
				c0.5-0.69,0.86-1.52,1.09-2.48c0.23-0.96,0.35-2.02,0.35-3.17c0-1.12-0.11-2.16-0.35-3.11c-0.23-0.95-0.59-1.76-1.09-2.44
				c-0.5-0.68-1.13-1.21-1.9-1.59s-1.69-0.58-2.76-0.58c-1.08,0-1.99,0.19-2.75,0.58c-0.76,0.38-1.38,0.92-1.88,1.59
				c-0.5,0.68-0.86,1.49-1.09,2.44c-0.23,0.95-0.35,2-0.35,3.15s0.11,2.2,0.35,3.15c0.23,0.95,0.59,1.77,1.07,2.46
				c0.49,0.69,1.11,1.23,1.88,1.61C439.83,164.44,440.75,164.64,441.82,164.64z M443.47,138.64h4.11l-5.18,5.45h-3.3L443.47,138.64z
				"/>
		</g>
		<g>
			<path class="st0" d="M270.58,51.74c-0.2,2.3-0.74,4.43-1.6,6.38c-0.87,1.96-2.06,3.65-3.57,5.08c-1.51,1.43-3.37,2.55-5.56,3.36
				c-2.2,0.81-4.75,1.21-7.65,1.21c-3.27,0-6.14-0.54-8.62-1.63c-2.48-1.09-4.56-2.62-6.23-4.6c-1.67-1.98-2.93-4.36-3.78-7.17
				c-0.85-2.8-1.27-5.9-1.27-9.28c0-3.51,0.46-6.65,1.39-9.44c0.93-2.78,2.26-5.16,3.99-7.14c1.73-1.98,3.83-3.49,6.29-4.54
				c2.46-1.05,5.24-1.57,8.35-1.57c2.74,0,5.13,0.34,7.17,1.03c2.04,0.69,3.75,1.67,5.14,2.96c1.39,1.29,2.51,2.84,3.36,4.66
				c0.85,1.81,1.47,3.85,1.88,6.11l-8.95,1.15c-0.44-2.54-1.3-4.54-2.57-5.99c-1.27-1.45-3.28-2.18-6.02-2.18
				c-3.47,0-6.1,1.3-7.89,3.9c-1.8,2.6-2.69,6.28-2.69,11.04c0,4.8,0.96,8.49,2.87,11.07c1.91,2.58,4.49,3.87,7.71,3.87
				c2.78,0,4.83-0.72,6.14-2.15c1.31-1.43,2.13-3.48,2.45-6.14H270.58z"/>
			<path class="st0" d="M276.09,23.49h8.71v7.62h-8.71V23.49z M276.21,35.11h8.47v31.58h-8.47V35.11z"/>
			<path class="st0" d="M321.15,56.82c-0.57,3.55-1.99,6.24-4.26,8.07c-2.28,1.84-5.6,2.75-9.95,2.75c-5.24,0-9.18-1.45-11.83-4.36
				c-2.64-2.9-3.96-7.02-3.96-12.34c0-2.66,0.38-5.03,1.15-7.11c0.77-2.08,1.84-3.84,3.24-5.29c1.39-1.45,3.06-2.55,4.99-3.3
				c1.94-0.74,4.07-1.12,6.41-1.12c4.84,0,8.48,1.39,10.92,4.17c2.44,2.78,3.66,6.53,3.66,11.25v3.39h-21.9
				c0.08,2.54,0.73,4.53,1.94,5.96c1.21,1.43,3.02,2.15,5.44,2.15c3.35,0,5.32-1.41,5.93-4.23H321.15z M302.52,21.37h8.53l7.26,9.38
				h-7.26l-4.29-5.02l-4.24,5.02h-7.26L302.52,21.37z M313.35,47.38c0-2.18-0.53-3.87-1.6-5.08c-1.07-1.21-2.73-1.81-4.99-1.81
				c-1.13,0-2.12,0.18-2.96,0.54c-0.85,0.36-1.56,0.86-2.15,1.48c-0.59,0.63-1.04,1.35-1.36,2.18c-0.32,0.83-0.5,1.72-0.54,2.69
				H313.35z"/>
			<path class="st0" d="M327.87,35.11h8.23v4.35c1.25-1.85,2.73-3.21,4.45-4.05c1.71-0.85,3.5-1.27,5.36-1.27
				c3.59,0,6.25,0.94,7.98,2.81c1.73,1.88,2.6,4.83,2.6,8.86v20.87h-8.47V46.96c0-2.22-0.42-3.73-1.27-4.54
				c-0.85-0.81-1.98-1.21-3.39-1.21c-1.09,0-2.03,0.16-2.81,0.48c-0.79,0.32-1.52,0.79-2.21,1.39c-0.57,0.57-1.04,1.24-1.42,2.03
				c-0.38,0.79-0.57,1.64-0.57,2.57v18.99h-8.47V35.11z"/>
			<path class="st0" d="M392.05,55.25c-0.32,3.79-1.62,6.81-3.9,9.04c-2.28,2.24-5.7,3.36-10.25,3.36c-2.66,0-4.96-0.4-6.9-1.21
				c-1.94-0.81-3.52-1.94-4.75-3.39c-1.23-1.45-2.15-3.21-2.75-5.26c-0.6-2.06-0.91-4.34-0.91-6.84s0.35-4.79,1.06-6.87
				c0.71-2.08,1.72-3.85,3.06-5.32c1.33-1.47,2.96-2.61,4.9-3.42c1.94-0.81,4.15-1.21,6.65-1.21c2.14,0,4,0.27,5.6,0.82
				c1.59,0.54,2.93,1.3,4.02,2.27c1.09,0.97,1.94,2.13,2.54,3.48s1.01,2.83,1.21,4.45l-8.53,1.15c-0.2-1.61-0.67-2.91-1.39-3.9
				c-0.73-0.99-1.98-1.48-3.75-1.48c-1.29,0-2.36,0.27-3.21,0.82s-1.52,1.28-2.03,2.21c-0.5,0.93-0.86,1.99-1.06,3.18
				c-0.2,1.19-0.3,2.43-0.3,3.72c0,1.33,0.1,2.6,0.3,3.81c0.2,1.21,0.54,2.28,1.03,3.21c0.49,0.93,1.15,1.66,2,2.21
				s1.91,0.82,3.21,0.82c1.69,0,3-0.48,3.93-1.45c0.93-0.97,1.47-2.36,1.63-4.17H392.05z"/>
			<path class="st0" d="M398.03,23.49h8.71v7.62h-8.71V23.49z M398.16,35.11h8.47v31.58h-8.47V35.11z"/>
			<path class="st0" d="M432.94,62.69c-1.25,1.41-2.65,2.56-4.2,3.45c-1.55,0.89-3.56,1.33-6.02,1.33c-1.41,0-2.75-0.18-4.02-0.54
				c-1.27-0.36-2.38-0.93-3.33-1.69c-0.95-0.77-1.7-1.74-2.27-2.93c-0.57-1.19-0.85-2.61-0.85-4.26c0-2.18,0.48-3.95,1.45-5.32
				c0.97-1.37,2.24-2.44,3.81-3.21c1.57-0.77,3.34-1.31,5.29-1.63c1.96-0.32,3.94-0.52,5.96-0.6l4.05-0.18v-1.57
				c0-1.94-0.53-3.27-1.6-3.99c-1.07-0.73-2.33-1.09-3.78-1.09c-3.35,0-5.26,1.27-5.75,3.81l-7.74-0.73
				c0.57-3.31,2.02-5.7,4.36-7.17c2.34-1.47,5.48-2.21,9.44-2.21c2.42,0,4.48,0.29,6.17,0.88c1.7,0.59,3.06,1.42,4.08,2.51
				c1.03,1.09,1.77,2.41,2.24,3.96c0.46,1.55,0.7,3.3,0.7,5.23v19.96h-7.99V62.69z M432.76,52.59l-3.75,0.18
				c-1.78,0.08-3.21,0.26-4.3,0.54c-1.09,0.28-1.93,0.64-2.51,1.06c-0.59,0.42-0.98,0.92-1.18,1.48c-0.2,0.57-0.3,1.19-0.3,1.88
				c0,1.05,0.36,1.87,1.09,2.48c0.73,0.6,1.73,0.91,3.02,0.91c2.18,0,3.95-0.5,5.32-1.51c0.77-0.57,1.39-1.28,1.87-2.15
				c0.48-0.87,0.73-1.95,0.73-3.24V52.59z"/>
			<path class="st0" d="M483.51,62.51c-2.42,3.43-5.69,5.14-9.8,5.14c-4.44,0-7.74-1.49-9.92-4.48c-2.18-2.98-3.27-7.12-3.27-12.4
				c0-2.46,0.31-4.71,0.94-6.74c0.62-2.04,1.52-3.79,2.69-5.26c1.17-1.47,2.6-2.61,4.29-3.42c1.69-0.81,3.61-1.21,5.75-1.21
				c1.57,0,3.13,0.28,4.69,0.85c1.55,0.57,3.01,1.65,4.38,3.27V23.49h8.47v43.19h-8.23V62.51z M483.33,50.53
				c0-2.02-0.17-3.63-0.51-4.84c-0.34-1.21-0.9-2.2-1.66-2.96c-0.73-0.73-1.52-1.2-2.39-1.42c-0.87-0.22-1.72-0.33-2.57-0.33
				c-0.93,0-1.81,0.18-2.63,0.54c-0.83,0.36-1.55,0.93-2.18,1.69c-0.62,0.77-1.12,1.77-1.48,3.02c-0.36,1.25-0.54,2.74-0.54,4.48
				c0,1.9,0.17,3.48,0.51,4.75c0.34,1.27,0.82,2.3,1.42,3.09c0.6,0.79,1.31,1.35,2.12,1.69c0.81,0.34,1.67,0.51,2.6,0.51
				c2.02,0,3.67-0.58,4.96-1.75c0.81-0.81,1.4-1.79,1.79-2.93s0.58-2.63,0.58-4.45V50.53z"/>
			<path class="st0" d="M517.99,62.69c-1.25,1.41-2.65,2.56-4.2,3.45c-1.55,0.89-3.56,1.33-6.02,1.33c-1.41,0-2.75-0.18-4.02-0.54
				c-1.27-0.36-2.38-0.93-3.33-1.69c-0.95-0.77-1.7-1.74-2.27-2.93c-0.57-1.19-0.85-2.61-0.85-4.26c0-2.18,0.48-3.95,1.45-5.32
				c0.97-1.37,2.24-2.44,3.81-3.21c1.57-0.77,3.34-1.31,5.29-1.63c1.95-0.32,3.94-0.52,5.96-0.6l4.05-0.18v-1.57
				c0-1.94-0.54-3.27-1.6-3.99c-1.07-0.73-2.33-1.09-3.78-1.09c-3.35,0-5.26,1.27-5.75,3.81l-7.74-0.73
				c0.56-3.31,2.02-5.7,4.35-7.17c2.34-1.47,5.48-2.21,9.44-2.21c2.42,0,4.48,0.29,6.17,0.88c1.69,0.59,3.05,1.42,4.08,2.51
				s1.77,2.41,2.24,3.96c0.46,1.55,0.7,3.3,0.7,5.23v19.96h-7.99V62.69z M517.8,52.59l-3.75,0.18c-1.77,0.08-3.21,0.26-4.29,0.54
				c-1.09,0.28-1.93,0.64-2.51,1.06c-0.58,0.42-0.98,0.92-1.18,1.48c-0.2,0.57-0.3,1.19-0.3,1.88c0,1.05,0.36,1.87,1.09,2.48
				c0.73,0.6,1.73,0.91,3.03,0.91c2.18,0,3.95-0.5,5.32-1.51c0.77-0.57,1.39-1.28,1.87-2.15s0.73-1.95,0.73-3.24V52.59z"/>
			<path class="st0" d="M270.58,110.91c-0.2,2.3-0.74,4.43-1.6,6.38c-0.87,1.96-2.06,3.65-3.57,5.08c-1.51,1.43-3.37,2.55-5.56,3.36
				c-2.2,0.81-4.75,1.21-7.65,1.21c-3.27,0-6.14-0.54-8.62-1.63c-2.48-1.09-4.56-2.62-6.23-4.6c-1.67-1.98-2.93-4.36-3.78-7.17
				c-0.85-2.8-1.27-5.9-1.27-9.28c0-3.51,0.46-6.65,1.39-9.44c0.93-2.78,2.26-5.16,3.99-7.14c1.73-1.98,3.83-3.49,6.29-4.54
				c2.46-1.05,5.24-1.57,8.35-1.57c2.74,0,5.13,0.34,7.17,1.03c2.04,0.69,3.75,1.67,5.14,2.96c1.39,1.29,2.51,2.84,3.36,4.66
				c0.85,1.81,1.47,3.85,1.88,6.11l-8.95,1.15c-0.44-2.54-1.3-4.54-2.57-5.99c-1.27-1.45-3.28-2.18-6.02-2.18
				c-3.47,0-6.1,1.3-7.89,3.9c-1.8,2.6-2.69,6.28-2.69,11.04c0,4.8,0.96,8.49,2.87,11.07c1.91,2.58,4.49,3.87,7.71,3.87
				c2.78,0,4.83-0.72,6.14-2.15c1.31-1.43,2.13-3.48,2.45-6.14H270.58z"/>
			<path class="st0" d="M291.03,126.82c-5.08,0-9.01-1.45-11.8-4.36c-2.78-2.9-4.17-7.06-4.17-12.46c0-2.58,0.37-4.91,1.12-6.99
				c0.75-2.08,1.81-3.83,3.21-5.26c1.39-1.43,3.07-2.53,5.05-3.3c1.98-0.77,4.17-1.15,6.59-1.15c2.46,0,4.68,0.38,6.65,1.15
				c1.98,0.77,3.66,1.87,5.05,3.3c1.39,1.43,2.45,3.19,3.17,5.26c0.73,2.08,1.09,4.41,1.09,6.99c0,2.62-0.37,4.97-1.12,7.05
				c-0.75,2.08-1.81,3.84-3.21,5.29c-1.39,1.45-3.07,2.56-5.05,3.33C295.65,126.44,293.45,126.82,291.03,126.82z M291.03,120.05
				c2.42,0,4.22-0.87,5.41-2.6c1.19-1.73,1.78-4.21,1.78-7.44s-0.6-5.69-1.78-7.38c-1.19-1.69-2.99-2.54-5.41-2.54
				s-4.22,0.85-5.41,2.54c-1.19,1.69-1.78,4.15-1.78,7.38c0,3.27,0.58,5.76,1.75,7.47C286.75,119.19,288.57,120.05,291.03,120.05z"
				/>
			<path class="st0" d="M313.41,94.28h8.23v4.23c1.17-1.77,2.54-3.08,4.11-3.93c1.57-0.85,3.23-1.27,4.96-1.27
				c2.3,0,4.17,0.46,5.63,1.39c1.45,0.93,2.48,2.28,3.08,4.05c1.45-1.94,2.98-3.33,4.6-4.17c1.61-0.85,3.39-1.27,5.32-1.27
				c3.27,0,5.72,0.9,7.35,2.69c1.63,1.8,2.45,4.71,2.45,8.74v21.11h-8.47v-19.96c0-1.13-0.1-2.05-0.3-2.75
				c-0.2-0.71-0.48-1.26-0.82-1.66c-0.34-0.4-0.76-0.69-1.24-0.85c-0.48-0.16-0.99-0.24-1.51-0.24c-0.85,0-1.62,0.14-2.33,0.42
				c-0.71,0.28-1.4,0.77-2.09,1.45c-0.57,0.57-1.02,1.21-1.36,1.94c-0.34,0.73-0.51,1.49-0.51,2.3v19.36h-8.47v-19.96
				c0-1.13-0.1-2.05-0.3-2.75c-0.2-0.71-0.48-1.26-0.82-1.66c-0.34-0.4-0.76-0.69-1.24-0.85c-0.48-0.16-0.99-0.24-1.51-0.24
				c-0.85,0-1.62,0.14-2.33,0.42c-0.71,0.28-1.4,0.77-2.09,1.45c-0.57,0.57-1.02,1.24-1.36,2.03c-0.34,0.79-0.51,1.64-0.51,2.57
				v18.99h-8.47V94.28z"/>
			<path class="st0" d="M366.34,94.28h8.23v4.17c2.42-3.43,5.72-5.14,9.92-5.14c4.4,0,7.68,1.49,9.86,4.48
				c2.18,2.98,3.27,7.08,3.27,12.28c0,2.5-0.31,4.78-0.94,6.84c-0.63,2.06-1.53,3.82-2.72,5.29c-1.19,1.47-2.63,2.61-4.33,3.42
				c-1.69,0.81-3.61,1.21-5.75,1.21c-1.57,0-3.14-0.28-4.69-0.85c-1.55-0.56-3.02-1.69-4.39-3.39v15h-8.47V94.28z M374.75,110.31
				c0,2.06,0.17,3.7,0.51,4.93c0.34,1.23,0.9,2.23,1.66,2.99c0.81,0.73,1.62,1.2,2.45,1.42c0.83,0.22,1.66,0.33,2.51,0.33
				c0.93,0,1.81-0.18,2.66-0.54c0.85-0.36,1.58-0.94,2.21-1.72c0.63-0.79,1.12-1.81,1.48-3.06s0.54-2.76,0.54-4.54
				c0-1.85-0.17-3.41-0.51-4.66c-0.34-1.25-0.82-2.27-1.42-3.06c-0.61-0.79-1.32-1.35-2.15-1.69c-0.83-0.34-1.71-0.51-2.63-0.51
				c-1.05,0-1.96,0.14-2.72,0.42c-0.77,0.28-1.51,0.73-2.24,1.33c-0.81,0.77-1.4,1.73-1.79,2.9c-0.38,1.17-0.57,2.66-0.57,4.48
				V110.31z"/>
			<path class="st0" d="M403.72,94.28h8.47V114c0,2.26,0.4,3.78,1.21,4.57c0.81,0.79,1.91,1.18,3.33,1.18
				c1.09,0,1.99-0.16,2.69-0.48c0.71-0.32,1.38-0.79,2.03-1.39c0.64-0.56,1.16-1.24,1.54-2.03c0.38-0.79,0.57-1.64,0.57-2.57V94.28
				h8.47v31.58h-8.23v-4.35c-1.29,1.85-2.75,3.21-4.39,4.05c-1.63,0.85-3.38,1.27-5.23,1.27c-3.59,0-6.23-0.94-7.92-2.81
				c-1.7-1.87-2.54-4.83-2.54-8.86V94.28z"/>
			<path class="st0" d="M441.47,100.87h-4.96v-6.59h4.96v-8.41h8.47v8.41h7.26v6.59h-7.26v14.58c0,1.65,0.34,2.77,1.03,3.36
				c0.69,0.59,1.57,0.88,2.66,0.88c0.56,0,1.14-0.03,1.72-0.09c0.58-0.06,1.16-0.17,1.72-0.33l1.21,6.23
				c-1.17,0.36-2.31,0.62-3.42,0.76c-1.11,0.14-2.17,0.21-3.18,0.21c-3.47,0-6.04-0.83-7.71-2.48c-1.67-1.65-2.51-4.44-2.51-8.35
				V100.87z"/>
			<path class="st0" d="M481.21,121.86c-1.25,1.41-2.65,2.56-4.2,3.45c-1.55,0.89-3.56,1.33-6.02,1.33c-1.41,0-2.75-0.18-4.02-0.54
				c-1.27-0.36-2.38-0.93-3.33-1.69c-0.95-0.77-1.7-1.74-2.27-2.93c-0.57-1.19-0.85-2.61-0.85-4.26c0-2.18,0.48-3.95,1.45-5.32
				c0.97-1.37,2.24-2.44,3.81-3.21c1.57-0.77,3.34-1.31,5.29-1.63c1.96-0.32,3.94-0.52,5.96-0.6l4.05-0.18v-1.57
				c0-1.94-0.53-3.27-1.6-3.99c-1.07-0.73-2.33-1.09-3.78-1.09c-3.35,0-5.26,1.27-5.75,3.81l-7.74-0.73
				c0.57-3.31,2.02-5.7,4.36-7.17c2.34-1.47,5.48-2.21,9.44-2.21c2.42,0,4.48,0.29,6.17,0.88c1.7,0.59,3.06,1.42,4.08,2.51
				c1.03,1.09,1.77,2.41,2.24,3.96c0.46,1.55,0.7,3.3,0.7,5.23v19.96h-7.99V121.86z M481.03,111.76l-3.75,0.18
				c-1.78,0.08-3.21,0.26-4.3,0.54c-1.09,0.28-1.93,0.64-2.51,1.06c-0.59,0.42-0.98,0.92-1.18,1.48c-0.2,0.57-0.3,1.19-0.3,1.88
				c0,1.05,0.36,1.87,1.09,2.48c0.73,0.6,1.73,0.91,3.02,0.91c2.18,0,3.95-0.5,5.32-1.51c0.77-0.57,1.39-1.28,1.87-2.15
				c0.48-0.87,0.73-1.95,0.73-3.24V111.76z"/>
			<path class="st0" d="M503.95,134.45c1.05,0.16,1.9,0.26,2.57,0.3c0.67,0.04,1.26,0.06,1.78,0.06c1.77,0,2.66-0.57,2.66-1.69
				c0-0.57-0.24-0.99-0.73-1.27c-0.48-0.28-1.37-0.42-2.66-0.42h-2.18l1.87-4.84c-4.15-0.64-7.19-2.43-9.1-5.35
				c-1.92-2.92-2.87-6.62-2.87-11.1c0-2.5,0.35-4.79,1.06-6.87c0.71-2.08,1.72-3.85,3.05-5.32c1.33-1.47,2.96-2.61,4.9-3.42
				c1.94-0.81,4.15-1.21,6.65-1.21c2.14,0,4,0.27,5.59,0.82c1.59,0.54,2.93,1.3,4.02,2.27c1.09,0.97,1.94,2.13,2.54,3.48
				c0.6,1.35,1.01,2.83,1.21,4.45l-8.53,1.15c-0.2-1.61-0.67-2.91-1.39-3.9c-0.73-0.99-1.98-1.48-3.75-1.48
				c-1.29,0-2.36,0.27-3.21,0.82c-0.85,0.54-1.52,1.28-2.03,2.21c-0.51,0.93-0.86,1.99-1.06,3.18s-0.3,2.43-0.3,3.72
				c0,1.33,0.1,2.6,0.3,3.81s0.54,2.28,1.03,3.21c0.48,0.93,1.15,1.66,2,2.21c0.85,0.54,1.92,0.82,3.21,0.82
				c1.69,0,3-0.48,3.93-1.45c0.93-0.97,1.47-2.36,1.63-4.17h8.59c-0.32,3.59-1.51,6.49-3.57,8.71c-2.06,2.22-5.16,3.43-9.32,3.63
				l-0.67,1.94c1.09,0.16,2,0.4,2.72,0.73c0.73,0.32,1.29,0.72,1.69,1.18c0.4,0.46,0.69,0.97,0.85,1.51
				c0.16,0.54,0.24,1.1,0.24,1.66c0,1.85-0.76,3.18-2.27,3.99s-3.54,1.21-6.08,1.21c-0.57,0-1.2-0.02-1.91-0.06s-1.54-0.14-2.51-0.3
				V134.45z"/>
			<path class="st0" d="M549.56,121.86c-1.25,1.41-2.65,2.56-4.2,3.45c-1.55,0.89-3.56,1.33-6.02,1.33c-1.41,0-2.75-0.18-4.02-0.54
				c-1.27-0.36-2.38-0.93-3.33-1.69c-0.95-0.77-1.71-1.74-2.27-2.93c-0.57-1.19-0.85-2.61-0.85-4.26c0-2.18,0.48-3.95,1.45-5.32
				c0.97-1.37,2.24-2.44,3.81-3.21c1.57-0.77,3.34-1.31,5.29-1.63c1.95-0.32,3.94-0.52,5.96-0.6l4.05-0.18v-1.57
				c0-1.94-0.54-3.27-1.6-3.99c-1.07-0.73-2.33-1.09-3.78-1.09c-3.35,0-5.26,1.27-5.75,3.81l-7.74-0.73
				c0.57-3.31,2.02-5.7,4.36-7.17c2.34-1.47,5.48-2.21,9.44-2.21c2.42,0,4.48,0.29,6.17,0.88c1.69,0.59,3.06,1.42,4.08,2.51
				c1.03,1.09,1.77,2.41,2.24,3.96c0.46,1.55,0.7,3.3,0.7,5.23v19.96h-7.99V121.86z M532.44,89.44c0-3.02,0.64-5.21,1.94-6.56
				c1.29-1.35,3.04-2.03,5.26-2.03c0.77,0,1.51,0.14,2.24,0.42c0.73,0.28,1.4,0.59,2.03,0.91c0.63,0.32,1.23,0.63,1.81,0.91
				c0.58,0.28,1.16,0.42,1.72,0.42c0.73,0,1.3-0.16,1.72-0.48c0.42-0.32,0.64-0.97,0.64-1.94h5.69c0,3.02-0.65,5.2-1.94,6.53
				c-1.29,1.33-3.02,2-5.2,2c-0.81,0-1.56-0.14-2.27-0.42c-0.71-0.28-1.38-0.59-2.03-0.94c-0.64-0.34-1.25-0.65-1.81-0.94
				c-0.57-0.28-1.11-0.42-1.63-0.42c-0.77,0-1.37,0.17-1.82,0.51c-0.44,0.34-0.67,1.02-0.67,2.03H532.44z M549.38,111.76l-3.75,0.18
				c-1.78,0.08-3.21,0.26-4.3,0.54c-1.09,0.28-1.93,0.64-2.51,1.06c-0.59,0.42-0.98,0.92-1.18,1.48c-0.2,0.57-0.3,1.19-0.3,1.88
				c0,1.05,0.36,1.87,1.09,2.48c0.73,0.6,1.73,0.91,3.03,0.91c2.18,0,3.95-0.5,5.32-1.51c0.77-0.57,1.39-1.28,1.87-2.15
				c0.49-0.87,0.73-1.95,0.73-3.24V111.76z"/>
			<path class="st0" d="M579.63,126.82c-5.08,0-9.01-1.45-11.8-4.36c-2.78-2.9-4.17-7.06-4.17-12.46c0-2.58,0.37-4.91,1.12-6.99
				c0.75-2.08,1.81-3.83,3.21-5.26c1.39-1.43,3.07-2.53,5.05-3.3c1.98-0.77,4.17-1.15,6.59-1.15c2.46,0,4.68,0.38,6.65,1.15
				c1.98,0.77,3.66,1.87,5.05,3.3c1.39,1.43,2.45,3.19,3.17,5.26c0.73,2.08,1.09,4.41,1.09,6.99c0,2.62-0.37,4.97-1.12,7.05
				c-0.75,2.08-1.81,3.84-3.21,5.29c-1.39,1.45-3.07,2.56-5.05,3.33C584.24,126.44,582.04,126.82,579.63,126.82z M579.63,120.05
				c2.42,0,4.22-0.87,5.41-2.6c1.19-1.73,1.78-4.21,1.78-7.44s-0.6-5.69-1.78-7.38c-1.19-1.69-2.99-2.54-5.41-2.54
				c-2.42,0-4.22,0.85-5.41,2.54c-1.19,1.69-1.78,4.15-1.78,7.38c0,3.27,0.58,5.76,1.75,7.47
				C575.35,119.19,577.16,120.05,579.63,120.05z"/>
		</g>
		<g>
			<path class="st0" d="M4.58,194.53l12.72-47.49C8.86,132.66,4.41,116.25,4.41,99.5c0-51.84,42.18-94.02,94.02-94.02
				s94.02,42.18,94.02,94.02s-42.18,94.02-94.02,94.02c-16,0-31.79-4.11-45.74-11.89L4.58,194.53z M53.42,175.99l0.94,0.54
				c13.38,7.67,28.62,11.73,44.07,11.73c48.94,0,88.76-39.82,88.76-88.76s-39.82-88.76-88.76-88.76S9.67,50.55,9.67,99.5
				c0,16.17,4.4,32.01,12.71,45.79l0.58,0.96l-10.94,40.84L53.42,175.99z"/>
		</g>
	</g>
	<g>
		<g>
			<path class="st0" d="M143.3,93.9c0,11.85,0,23.71,0,35.56c0,2.32-0.82,4.26-2.58,5.79c-1.37,1.18-3,1.66-4.77,1.66
				c-4.82,0.01-9.64,0-14.45,0c-5.33,0-10.66,0.01-15.99,0c-1.83,0-3.5-0.49-4.88-1.75c-1.56-1.43-2.48-3.16-2.48-5.32
				c0-1.34,0-1.34,1.36-1.34c1.69,0,3.38,0.01,5.07,0.01c4.68,0,9.08-3.93,9.68-8.76c0.23-1.88,0.08-3.77,0.09-5.65
				c0.02-5.58,0.01-11.16-0.01-16.74c0-0.45,0.15-0.55,0.58-0.54c6.19,0.01,12.38,0.01,18.58,0.01c0.2,0,0.4,0.01,0.6-0.01
				c0.81-0.08,1.32-0.62,1.34-1.38c0.02-0.95-0.46-1.61-1.27-1.73c-0.41-0.06-0.82-0.09-1.24-0.09c-5.94-0.01-11.89,0-17.83,0
				c-0.73,0-0.73,0-0.73-0.73c0-2.12,0-4.24,0-6.36c0-0.66,0.04-0.7,0.71-0.7c6.16,0,12.32,0.01,18.48,0.01c0.13,0,0.26,0,0.4,0
				c0.98-0.03,1.54-0.53,1.56-1.42c0.03-0.94-0.57-1.65-1.48-1.73c-0.35-0.03-0.69-0.02-1.04-0.02c-5.99,0-11.99,0-17.98,0
				c-0.62,0-0.64-0.02-0.64-0.64c0-1.39,0-2.78,0-4.17c0-0.82-0.13-1.61-0.34-2.4c-0.15-0.56-0.15-0.58,0.45-0.58
				c5.43,0,10.86,0,16.29,0c1.09,0,2.18-0.04,3.27-0.08c0.88-0.03,1.38-0.52,1.4-1.34c0.02-1.04-0.41-1.6-1.33-1.69
				c-0.33-0.03-0.66-0.02-0.99-0.02c-6.69,0-13.38-0.01-20.07,0.01c-0.67,0-1.14-0.2-1.63-0.71c-1.82-1.88-4.04-2.98-6.69-3.05
				c-1.97-0.05-3.94-0.01-5.91-0.02c-0.61,0-0.64-0.04-0.64-0.66c0-3.21-0.01-6.42-0.01-9.64c0.01-3,1.92-5.66,4.76-6.68
				c0.86-0.31,1.72-0.45,2.62-0.45c10.23,0,20.46-0.02,30.69,0.01c3.47,0.01,6.8,2.82,7,6.61c0.04,0.78,0.07,1.55,0.07,2.33
				C143.3,70.96,143.3,82.43,143.3,93.9z M120.73,122.55c2.64-0.04,5.62-2.02,5.63-5.66c0.01-3.63-2.73-5.75-5.61-5.78
				c-2.8-0.03-5.65,2.08-5.68,5.7C115.04,120.48,118.09,122.52,120.73,122.55z M121.03,60.7c-1.72,0-3.44,0-5.16,0
				c-2.62,0-5.23,0-7.85,0.01c-0.82,0.01-1.52,0.68-1.56,1.45c-0.04,0.8,0.58,1.54,1.4,1.65c0.28,0.04,0.56,0.03,0.84,0.03
				c8.24,0,16.49,0,24.73-0.01c0.22,0,0.43,0.01,0.64-0.02c0.93-0.11,1.37-0.65,1.33-1.62c-0.03-0.87-0.59-1.44-1.47-1.49
				c-0.21-0.01-0.43-0.01-0.65-0.01C129.2,60.7,125.12,60.7,121.03,60.7z"/>
		</g>
		<g>
			<path class="st0" d="M75.87,71.2c9.25,0,18.51,0,27.76,0c1.08,0,2.15,0.07,3.15,0.54c2.45,1.13,3.83,3.06,4.32,5.68
				c0.07,0.38,0.11,0.75,0.11,1.13c0,13.11,0.03,26.22-0.02,39.34c-0.01,3.12-1.48,5.48-4.34,6.85c-0.99,0.47-2.08,0.66-3.18,0.66
				c-15.28,0-30.56,0-45.84,0c-3.28,0-6.56,0-9.83,0c-3.66,0-6.63-2.46-7.32-6.04c-0.09-0.49-0.15-0.98-0.15-1.48
				c0-13,0-25.99,0-38.99c0-2.53,0.85-4.66,2.89-6.25c1.33-1.03,2.83-1.45,4.49-1.45c7.04,0.01,14.07,0,21.11-0.01
				C71.31,71.19,73.59,71.19,75.87,71.2C75.87,71.19,75.87,71.19,75.87,71.2z M75.81,112.42c9.32,0,18.64,0,27.96,0.01
				c0.48,0,0.66-0.11,0.66-0.63c-0.01-11.09-0.01-22.19-0.01-33.28c0-0.81-0.01-0.81-0.81-0.81c-18.53,0-37.05,0-55.58,0
				c-0.79,0-0.79,0-0.79,0.77c0,11.08,0,22.15,0,33.23c0,0.71,0,0.71,0.7,0.71C57.23,112.42,66.52,112.42,75.81,112.42z
				 M75.85,119.97c0.93,0,1.85,0,2.78,0c0.35,0,0.69-0.07,1.01-0.22c0.6-0.29,0.91-0.9,0.82-1.61c-0.09-0.68-0.57-1.25-1.23-1.3
				c-2.18-0.19-4.36-0.06-6.55-0.07c-0.08,0-0.16,0.03-0.24,0.05c-0.62,0.14-1.17,0.79-1.23,1.46c-0.05,0.56,0.43,1.32,0.99,1.53
				c0.28,0.11,0.57,0.16,0.87,0.16C74,119.97,74.93,119.97,75.85,119.97z"/>
		</g>
		<g>
			<path class="st0" d="M75.87,138.6c-5.91,0-11.82,0-17.73,0c-0.48,0-0.96-0.02-1.38-0.32c-0.62-0.45-0.87-1.18-0.65-1.89
				c0.21-0.68,0.88-1.19,1.66-1.2c1.31-0.02,2.62-0.01,3.92-0.01c0.7,0,0.7-0.01,0.7-0.73c0-1.79,0.01-3.58-0.01-5.36
				c0-0.43,0.13-0.58,0.57-0.58c8.59,0.01,17.18,0.01,25.77,0c0.44,0,0.56,0.13,0.55,0.57c-0.03,1.84,0,3.67-0.02,5.51
				c-0.01,0.46,0.14,0.61,0.6,0.6c1.31-0.02,2.62-0.01,3.92-0.01c0.37,0,0.73,0.05,1.04,0.27c0.57,0.4,0.99,0.9,0.89,1.65
				c-0.08,0.65-0.78,1.33-1.47,1.45c-0.27,0.05-0.56,0.05-0.84,0.05C87.56,138.59,81.72,138.59,75.87,138.6z"/>
		</g>
	</g>
</g>
</svg>
