<?xml version="1.0" encoding="utf-8"?>
<!-- Generator: Adobe Illustrator 27.6.1, SVG Export Plug-In . SVG Version: 6.00 Build 0)  -->
<svg version="1.1" id="Camada_1" xmlns="http://www.w3.org/2000/svg" xmlns:xlink="http://www.w3.org/1999/xlink" x="0px" y="0px"
	 viewBox="0 0 600 200" style="enable-background:new 0 0 600 200;" xml:space="preserve">
<style type="text/css">
	.st0{fill:#FFFFFF;}
</style>
<g>
	<g>
		<path class="st0" d="M238.61,141.72h3.65v17.12c0,2.94,0.55,5.14,1.65,6.59c1.1,1.46,2.92,2.18,5.46,2.18
			c2.57,0,4.38-0.73,5.44-2.2s1.59-3.66,1.59-6.57v-17.12h3.65v17.12c0,2.12-0.25,3.92-0.73,5.42c-0.49,1.5-1.19,2.73-2.11,3.71
			c-0.91,0.98-2.04,1.69-3.38,2.15c-1.34,0.45-2.84,0.67-4.51,0.67c-3.41,0-6.06-0.95-7.92-2.86c-1.87-1.91-2.8-4.99-2.8-9.25
			V141.72z"/>
		<path class="st0" d="M265.53,149.55h3.41v3.14c1.01-1.35,2.12-2.32,3.34-2.9c1.22-0.58,2.5-0.87,3.85-0.87
			c2.33,0,4.06,0.64,5.18,1.91c1.12,1.27,1.69,3.14,1.69,5.6v13.66h-3.45v-12.99c0-1.91-0.34-3.25-1.03-4.03
			c-0.69-0.78-1.75-1.17-3.18-1.17c-0.77,0-1.53,0.13-2.28,0.4c-0.75,0.26-1.44,0.69-2.05,1.27c-0.66,0.58-1.16,1.2-1.51,1.85
			c-0.34,0.65-0.52,1.49-0.52,2.52v12.15h-3.45V149.55z"/>
		<path class="st0" d="M297.38,170.71c-1.56,0-2.95-0.25-4.17-0.75c-1.22-0.5-2.25-1.22-3.1-2.14s-1.5-2.07-1.95-3.41
			c-0.45-1.35-0.67-2.86-0.67-4.53s0.24-3.18,0.71-4.53c0.48-1.35,1.15-2.5,2.03-3.45c0.87-0.95,1.93-1.69,3.16-2.2
			s2.6-0.77,4.11-0.77c1.54,0,2.91,0.25,4.13,0.75c1.22,0.5,2.26,1.22,3.12,2.17c0.86,0.94,1.52,2.07,1.97,3.39
			c0.45,1.32,0.67,2.82,0.67,4.49c0,1.69-0.23,3.22-0.69,4.57c-0.46,1.35-1.13,2.5-1.99,3.45c-0.86,0.95-1.91,1.69-3.16,2.2
			C300.31,170.45,298.92,170.71,297.38,170.71z M297.42,167.85c1.11,0,2.06-0.2,2.86-0.6c0.79-0.4,1.45-0.95,1.97-1.67
			c0.52-0.71,0.89-1.57,1.13-2.56c0.24-0.99,0.36-2.09,0.36-3.28c0-1.16-0.12-2.24-0.36-3.22c-0.24-0.98-0.61-1.82-1.13-2.52
			c-0.52-0.7-1.17-1.25-1.97-1.65s-1.75-0.6-2.86-0.6c-1.11,0-2.06,0.2-2.84,0.6c-0.78,0.4-1.43,0.95-1.95,1.65
			c-0.52,0.7-0.89,1.54-1.13,2.52c-0.24,0.98-0.36,2.06-0.36,3.26c0,1.19,0.12,2.28,0.36,3.26c0.24,0.98,0.61,1.83,1.11,2.54
			c0.5,0.72,1.15,1.27,1.95,1.67C295.36,167.65,296.31,167.85,297.42,167.85z"/>
		<path class="st0" d="M329.83,163.13c-0.35,2.36-1.24,4.21-2.7,5.56c-1.46,1.35-3.51,2.02-6.16,2.02c-1.56,0-2.94-0.25-4.15-0.75
			c-1.2-0.5-2.21-1.22-3.02-2.16c-0.81-0.94-1.42-2.08-1.83-3.41c-0.41-1.34-0.61-2.84-0.61-4.51c0-1.64,0.22-3.14,0.67-4.49
			c0.45-1.35,1.1-2.5,1.95-3.46c0.85-0.95,1.88-1.69,3.1-2.22c1.22-0.53,2.59-0.79,4.13-0.79c2.46,0,4.37,0.6,5.72,1.81
			c1.35,1.2,2.21,2.86,2.58,4.98l-3.45,0.63c-0.13-0.66-0.31-1.27-0.54-1.83c-0.23-0.56-0.54-1.04-0.93-1.45
			c-0.4-0.41-0.88-0.73-1.45-0.95c-0.57-0.22-1.25-0.34-2.05-0.34c-1.09,0-2.01,0.2-2.78,0.61c-0.77,0.41-1.4,0.98-1.89,1.71
			c-0.49,0.73-0.85,1.58-1.07,2.56c-0.23,0.98-0.34,2.03-0.34,3.14s0.1,2.16,0.32,3.14c0.21,0.98,0.56,1.83,1.03,2.56
			c0.48,0.73,1.1,1.3,1.87,1.73c0.77,0.42,1.71,0.64,2.82,0.64c1.67,0,2.9-0.42,3.71-1.27c0.81-0.85,1.33-2,1.57-3.45H329.83z"/>
		<path class="st0" d="M334.23,141.72h3.45v10.88c1.01-1.3,2.11-2.24,3.32-2.82c1.2-0.58,2.48-0.87,3.83-0.87
			c2.33,0,4.06,0.64,5.18,1.91c1.13,1.27,1.69,3.14,1.69,5.6v13.66h-3.49v-12.99c0-1.91-0.34-3.25-1.01-4.03
			c-0.67-0.78-1.73-1.17-3.16-1.17c-0.77,0-1.53,0.13-2.28,0.4c-0.75,0.26-1.44,0.69-2.05,1.27c-0.66,0.58-1.16,1.2-1.51,1.85
			c-0.34,0.65-0.52,1.49-0.52,2.52v12.15h-3.45V141.72z"/>
		<path class="st0" d="M369.66,167.26c-0.74,0.9-1.68,1.67-2.82,2.32c-1.14,0.65-2.56,0.97-4.25,0.97c-1.03,0-1.98-0.13-2.84-0.38
			c-0.86-0.25-1.6-0.64-2.22-1.15c-0.62-0.52-1.11-1.16-1.45-1.93c-0.34-0.77-0.52-1.67-0.52-2.7c0-1.4,0.3-2.54,0.89-3.42
			c0.6-0.87,1.39-1.56,2.38-2.06c0.99-0.5,2.11-0.86,3.36-1.07c1.24-0.21,2.53-0.34,3.85-0.4l3.53-0.12v-0.79
			c0-1.75-0.37-3-1.11-3.77c-0.74-0.77-1.95-1.15-3.61-1.15c-1.64,0-2.85,0.27-3.61,0.81c-0.77,0.54-1.27,1.29-1.51,2.24l-3.14-0.36
			c0.37-1.88,1.26-3.25,2.66-4.11c1.4-0.86,3.31-1.29,5.72-1.29c1.48,0,2.73,0.18,3.75,0.54c1.02,0.36,1.85,0.87,2.48,1.53
			c0.63,0.66,1.09,1.48,1.37,2.46c0.28,0.98,0.42,2.08,0.42,3.3v13.34h-3.34V167.26z M369.58,159.79l-3.3,0.12
			c-1.4,0.05-2.57,0.19-3.49,0.4c-0.93,0.21-1.66,0.5-2.2,0.85c-0.54,0.36-0.93,0.8-1.15,1.33c-0.23,0.53-0.34,1.14-0.34,1.83
			c0,1.03,0.31,1.86,0.93,2.48c0.62,0.62,1.65,0.93,3.08,0.93c2.04,0,3.63-0.5,4.77-1.51c1.14-1.01,1.71-2.38,1.71-4.13V159.79z"/>
		<path class="st0" d="M378.23,149.55h3.41v2.94c0.85-1.16,1.83-2.05,2.96-2.66c1.12-0.61,2.44-0.91,3.95-0.91
			c1.46,0,2.73,0.27,3.83,0.79c1.1,0.53,2.01,1.27,2.74,2.22c0.73,0.95,1.27,2.09,1.63,3.4c0.36,1.31,0.54,2.76,0.54,4.35
			c0,1.69-0.21,3.22-0.63,4.59c-0.42,1.36-1.03,2.52-1.83,3.47c-0.79,0.95-1.75,1.69-2.88,2.2c-1.12,0.52-2.39,0.77-3.79,0.77
			c-1.17,0-2.31-0.23-3.43-0.69c-1.13-0.46-2.14-1.29-3.04-2.48v10.24h-3.45V149.55z M381.65,160.39c0,1.32,0.15,2.46,0.46,3.39
			c0.3,0.94,0.72,1.71,1.25,2.32c0.53,0.61,1.16,1.05,1.91,1.33c0.74,0.28,1.55,0.42,2.42,0.42c0.85,0,1.64-0.15,2.36-0.44
			s1.36-0.76,1.89-1.41c0.53-0.65,0.95-1.49,1.25-2.52c0.3-1.03,0.46-2.29,0.46-3.77c0-1.51-0.17-2.77-0.5-3.79
			c-0.33-1.02-0.76-1.83-1.29-2.44c-0.53-0.61-1.13-1.05-1.81-1.31c-0.67-0.26-1.37-0.4-2.09-0.4c-0.9,0-1.73,0.15-2.5,0.46
			c-0.77,0.3-1.44,0.75-2.01,1.35c-0.57,0.6-1.01,1.35-1.33,2.26c-0.32,0.91-0.48,1.97-0.48,3.16V160.39z"/>
		<path class="st0" d="M419.69,164.32c-0.35,1.99-1.22,3.55-2.64,4.69c-1.42,1.14-3.45,1.71-6.1,1.71c-3.12,0-5.52-0.95-7.19-2.84
			c-1.67-1.89-2.5-4.53-2.5-7.92c0-1.77,0.24-3.35,0.71-4.73c0.48-1.38,1.14-2.53,2.01-3.45c0.86-0.93,1.89-1.64,3.08-2.13
			c1.19-0.49,2.49-0.73,3.89-0.73c1.59,0,2.95,0.25,4.09,0.75c1.14,0.5,2.07,1.2,2.8,2.09c0.73,0.89,1.27,1.94,1.63,3.16
			c0.36,1.22,0.54,2.56,0.54,4.01v1.75h-15.25c0,1.03,0.14,1.99,0.42,2.88c0.28,0.89,0.67,1.65,1.19,2.3
			c0.52,0.65,1.16,1.16,1.93,1.53c0.77,0.37,1.65,0.56,2.66,0.56c1.72,0,2.98-0.32,3.77-0.97c0.79-0.65,1.34-1.53,1.63-2.64H419.69z
			 M416.56,158.08c0-0.98-0.11-1.87-0.32-2.66c-0.21-0.79-0.54-1.47-0.99-2.04s-1.03-1.01-1.75-1.33c-0.72-0.32-1.58-0.48-2.58-0.48
			c-1.83,0-3.25,0.56-4.27,1.67s-1.62,2.73-1.81,4.85H416.56z"/>
		<path class="st0" d="M442.37,163.13c-0.35,2.36-1.24,4.21-2.7,5.56c-1.46,1.35-3.51,2.02-6.16,2.02c-1.56,0-2.94-0.25-4.15-0.75
			c-1.2-0.5-2.21-1.22-3.02-2.16c-0.81-0.94-1.42-2.08-1.83-3.41c-0.41-1.34-0.61-2.84-0.61-4.51c0-1.64,0.22-3.14,0.67-4.49
			c0.45-1.35,1.1-2.5,1.95-3.46c0.85-0.95,1.88-1.69,3.1-2.22c1.22-0.53,2.59-0.79,4.13-0.79c2.46,0,4.37,0.6,5.72,1.81
			c1.35,1.2,2.21,2.86,2.58,4.98l-3.45,0.63c-0.13-0.66-0.31-1.27-0.54-1.83c-0.23-0.56-0.54-1.04-0.93-1.45
			c-0.4-0.41-0.88-0.73-1.45-0.95c-0.57-0.22-1.25-0.34-2.05-0.34c-1.09,0-2.01,0.2-2.78,0.61c-0.77,0.41-1.4,0.98-1.89,1.71
			c-0.49,0.73-0.85,1.58-1.07,2.56c-0.23,0.98-0.34,2.03-0.34,3.14s0.1,2.16,0.32,3.14c0.21,0.98,0.56,1.83,1.03,2.56
			c0.48,0.73,1.1,1.3,1.87,1.73c0.77,0.42,1.71,0.64,2.82,0.64c1.67,0,2.9-0.42,3.71-1.27c0.81-0.85,1.33-2,1.57-3.45H442.37z"/>
		<path class="st0" d="M455.59,170.71c-1.56,0-2.95-0.25-4.17-0.75c-1.22-0.5-2.25-1.22-3.1-2.14c-0.85-0.93-1.5-2.07-1.95-3.41
			c-0.45-1.35-0.67-2.86-0.67-4.53s0.24-3.18,0.71-4.53c0.48-1.35,1.15-2.5,2.03-3.45c0.87-0.95,1.93-1.69,3.16-2.2
			s2.6-0.77,4.11-0.77c1.54,0,2.91,0.25,4.13,0.75c1.22,0.5,2.26,1.22,3.12,2.17c0.86,0.94,1.52,2.07,1.97,3.39
			c0.45,1.32,0.67,2.82,0.67,4.49c0,1.69-0.23,3.22-0.69,4.57c-0.46,1.35-1.13,2.5-1.99,3.45c-0.86,0.95-1.91,1.69-3.16,2.2
			C458.52,170.45,457.13,170.71,455.59,170.71z M455.63,167.85c1.11,0,2.06-0.2,2.86-0.6c0.79-0.4,1.45-0.95,1.97-1.67
			c0.52-0.71,0.89-1.57,1.13-2.56c0.24-0.99,0.36-2.09,0.36-3.28c0-1.16-0.12-2.24-0.36-3.22c-0.24-0.98-0.61-1.82-1.13-2.52
			c-0.52-0.7-1.17-1.25-1.97-1.65s-1.75-0.6-2.86-0.6c-1.11,0-2.06,0.2-2.84,0.6c-0.78,0.4-1.43,0.95-1.95,1.65
			c-0.52,0.7-0.89,1.54-1.13,2.52c-0.24,0.98-0.36,2.06-0.36,3.26c0,1.19,0.12,2.28,0.36,3.26c0.24,0.98,0.61,1.83,1.11,2.54
			c0.5,0.72,1.15,1.27,1.95,1.67C453.57,167.65,454.52,167.85,455.63,167.85z M457.34,140.97h4.25l-5.36,5.64h-3.41L457.34,140.97z"
			/>
	</g>
	<g>
		<path class="st0" d="M246.99,51.96c0.21,2.75,1.1,4.76,2.66,6.01c1.56,1.25,3.87,1.88,6.91,1.88c1.46,0,2.69-0.16,3.69-0.47
			c1-0.31,1.81-0.73,2.44-1.25c0.63-0.52,1.07-1.14,1.35-1.85c0.27-0.71,0.41-1.48,0.41-2.32c0-1.17-0.44-2.26-1.31-3.28
			c-0.88-1.02-2.48-1.76-4.82-2.22l-5.82-1.06c-2.29-0.42-4.32-0.96-6.07-1.63c-1.75-0.67-3.22-1.53-4.41-2.6
			c-1.19-1.06-2.1-2.37-2.72-3.91s-0.94-3.38-0.94-5.51c0-2.13,0.43-4,1.28-5.63c0.85-1.63,2.04-2.98,3.57-4.07
			c1.52-1.08,3.35-1.91,5.47-2.47s4.46-0.84,7.01-0.84c3.25,0,5.96,0.37,8.13,1.13c2.17,0.75,3.92,1.74,5.26,2.97
			c1.33,1.23,2.32,2.66,2.97,4.29c0.65,1.63,1.07,3.32,1.28,5.07l-8.82,1.13c-0.46-2.46-1.34-4.23-2.66-5.32
			c-1.31-1.08-3.31-1.63-5.98-1.63c-1.59,0-2.89,0.14-3.91,0.41c-1.02,0.27-1.85,0.63-2.47,1.06c-0.63,0.44-1.06,0.95-1.31,1.53
			c-0.25,0.58-0.38,1.19-0.38,1.81c0,1.67,0.47,2.92,1.41,3.75c0.94,0.83,2.53,1.48,4.79,1.94l6.13,1.19
			c4.84,0.96,8.38,2.51,10.64,4.66c2.25,2.15,3.38,5.25,3.38,9.29c0,1.96-0.37,3.77-1.1,5.41c-0.73,1.65-1.81,3.09-3.25,4.32
			c-1.44,1.23-3.24,2.19-5.41,2.88c-2.17,0.69-4.71,1.03-7.63,1.03c-6.09,0-10.75-1.3-13.98-3.91c-3.23-2.61-4.97-6.54-5.22-11.79
			H246.99z"/>
		<path class="st0" d="M279.96,21.87h9.01v7.88h-9.01V21.87z M280.09,33.88h8.76v32.66h-8.76V33.88z"/>
		<path class="st0" d="M302.98,56.15c0.29,1.92,1.06,3.17,2.32,3.75c1.25,0.58,2.75,0.88,4.5,0.88c2.08,0,3.58-0.26,4.47-0.78
			c0.9-0.52,1.35-1.37,1.35-2.53c0-0.83-0.28-1.56-0.84-2.19c-0.56-0.63-1.64-1.06-3.22-1.31l-4.5-0.75
			c-3.96-0.63-6.91-1.7-8.85-3.22c-1.94-1.52-2.91-3.83-2.91-6.91c0-1.58,0.34-3,1.03-4.25c0.69-1.25,1.66-2.32,2.91-3.19
			c1.25-0.88,2.74-1.55,4.47-2.03c1.73-0.48,3.64-0.72,5.72-0.72c2.59,0,4.76,0.26,6.51,0.78c1.75,0.52,3.18,1.22,4.29,2.1
			c1.11,0.88,1.94,1.92,2.5,3.13c0.56,1.21,0.97,2.5,1.22,3.88l-7.82,1c-0.38-1.5-1.03-2.61-1.97-3.32
			c-0.94-0.71-2.45-1.06-4.54-1.06c-1.17,0-2.14,0.09-2.91,0.28c-0.77,0.19-1.38,0.43-1.81,0.72c-0.44,0.29-0.75,0.63-0.94,1
			c-0.19,0.38-0.28,0.73-0.28,1.06c0,1.04,0.32,1.81,0.97,2.28c0.65,0.48,1.91,0.89,3.79,1.22l4.13,0.69
			c2.29,0.38,4.19,0.86,5.69,1.44c1.5,0.58,2.7,1.3,3.6,2.16c0.9,0.86,1.52,1.87,1.88,3.03c0.35,1.17,0.53,2.52,0.53,4.07
			c0,3.09-1.17,5.56-3.5,7.41c-2.34,1.85-5.94,2.78-10.82,2.78c-1.96,0-3.83-0.18-5.6-0.53c-1.77-0.35-3.36-0.97-4.75-1.84
			c-1.4-0.88-2.54-2.04-3.44-3.5c-0.9-1.46-1.41-3.29-1.53-5.51H302.98z"/>
		<path class="st0" d="M332.26,40.7h-5.13v-6.82h5.13v-8.7h8.76v8.7h7.51v6.82h-7.51v15.08c0,1.71,0.35,2.87,1.06,3.47
			c0.71,0.61,1.63,0.91,2.75,0.91c0.58,0,1.18-0.03,1.78-0.09c0.6-0.06,1.2-0.18,1.78-0.34l1.25,6.44
			c-1.21,0.38-2.39,0.64-3.53,0.78c-1.15,0.15-2.24,0.22-3.28,0.22c-3.59,0-6.25-0.85-7.98-2.56c-1.73-1.71-2.6-4.59-2.6-8.63V40.7z
			"/>
		<path class="st0" d="M383.25,56.34c-0.58,3.67-2.05,6.46-4.41,8.35c-2.36,1.9-5.79,2.85-10.29,2.85c-5.42,0-9.5-1.5-12.23-4.51
			c-2.73-3-4.1-7.26-4.1-12.76c0-2.75,0.4-5.2,1.19-7.35c0.79-2.15,1.91-3.97,3.35-5.47c1.44-1.5,3.16-2.64,5.16-3.41
			c2-0.77,4.21-1.16,6.63-1.16c5.01,0,8.77,1.44,11.29,4.32c2.52,2.88,3.79,6.76,3.79,11.64v3.5h-22.65c0.08,2.63,0.75,4.68,2,6.16
			c1.25,1.48,3.13,2.22,5.63,2.22c3.46,0,5.51-1.46,6.13-4.38H383.25z M375.18,46.58c0-2.25-0.55-4-1.66-5.26
			c-1.11-1.25-2.83-1.88-5.16-1.88c-1.17,0-2.19,0.19-3.07,0.56c-0.88,0.38-1.62,0.89-2.22,1.53c-0.61,0.65-1.07,1.4-1.41,2.25
			c-0.33,0.86-0.52,1.78-0.56,2.78H375.18z"/>
		<path class="st0" d="M390.2,33.88h8.51v4.38c1.21-1.83,2.63-3.19,4.25-4.07c1.63-0.88,3.34-1.31,5.13-1.31
			c2.38,0,4.32,0.48,5.82,1.44c1.5,0.96,2.56,2.36,3.19,4.19c1.5-2,3.09-3.44,4.76-4.32c1.67-0.88,3.5-1.31,5.51-1.31
			c3.38,0,5.91,0.93,7.6,2.78c1.69,1.86,2.53,4.87,2.53,9.04v21.83h-8.76V45.89c0-1.17-0.1-2.12-0.31-2.85
			c-0.21-0.73-0.49-1.3-0.84-1.72c-0.35-0.42-0.78-0.71-1.28-0.88c-0.5-0.17-1.02-0.25-1.56-0.25c-0.88,0-1.68,0.15-2.41,0.44
			c-0.73,0.29-1.45,0.79-2.16,1.5c-0.59,0.59-1.05,1.25-1.41,2c-0.35,0.75-0.53,1.54-0.53,2.38v20.02h-8.76V45.89
			c0-1.17-0.1-2.12-0.31-2.85c-0.21-0.73-0.49-1.3-0.84-1.72c-0.35-0.42-0.78-0.71-1.28-0.88c-0.5-0.17-1.02-0.25-1.56-0.25
			c-0.88,0-1.68,0.15-2.41,0.44c-0.73,0.29-1.45,0.79-2.16,1.5c-0.58,0.59-1.05,1.28-1.41,2.1c-0.36,0.81-0.53,1.7-0.53,2.66v19.65
			h-8.76V33.88z"/>
		<path class="st0" d="M464.34,62.41c-1.29,1.46-2.74,2.65-4.35,3.57c-1.61,0.92-3.68,1.38-6.23,1.38c-1.46,0-2.85-0.19-4.16-0.56
			c-1.31-0.37-2.46-0.96-3.44-1.75c-0.98-0.79-1.76-1.8-2.35-3.03c-0.58-1.23-0.88-2.7-0.88-4.41c0-2.25,0.5-4.09,1.5-5.51
			c1-1.42,2.32-2.52,3.94-3.32c1.63-0.79,3.45-1.35,5.47-1.69c2.02-0.33,4.08-0.54,6.16-0.63l4.19-0.19v-1.63
			c0-2-0.55-3.38-1.66-4.13c-1.11-0.75-2.41-1.13-3.91-1.13c-3.46,0-5.44,1.31-5.94,3.94l-8.01-0.75c0.58-3.42,2.09-5.89,4.5-7.41
			c2.42-1.52,5.67-2.28,9.76-2.28c2.5,0,4.63,0.3,6.38,0.91c1.75,0.61,3.16,1.47,4.22,2.6c1.06,1.13,1.83,2.49,2.31,4.1
			c0.48,1.61,0.72,3.41,0.72,5.41v20.65h-8.26V62.41z M464.15,51.96l-3.88,0.19c-1.84,0.08-3.32,0.27-4.44,0.56
			c-1.13,0.29-1.99,0.66-2.6,1.09c-0.61,0.44-1.01,0.95-1.22,1.53c-0.21,0.59-0.31,1.23-0.31,1.94c0,1.09,0.38,1.94,1.13,2.56
			c0.75,0.63,1.79,0.94,3.13,0.94c2.25,0,4.09-0.52,5.51-1.56c0.79-0.58,1.44-1.32,1.94-2.22c0.5-0.9,0.75-2.01,0.75-3.35V51.96z"/>
		<path class="st0" d="M486.36,56.15c0.29,1.92,1.06,3.17,2.32,3.75c1.25,0.58,2.75,0.88,4.5,0.88c2.08,0,3.58-0.26,4.47-0.78
			c0.9-0.52,1.35-1.37,1.35-2.53c0-0.83-0.28-1.56-0.84-2.19c-0.56-0.63-1.64-1.06-3.22-1.31l-4.5-0.75
			c-3.96-0.63-6.91-1.7-8.85-3.22c-1.94-1.52-2.91-3.83-2.91-6.91c0-1.58,0.34-3,1.03-4.25c0.69-1.25,1.66-2.32,2.91-3.19
			c1.25-0.88,2.74-1.55,4.47-2.03c1.73-0.48,3.64-0.72,5.72-0.72c2.59,0,4.76,0.26,6.51,0.78c1.75,0.52,3.18,1.22,4.29,2.1
			c1.11,0.88,1.94,1.92,2.5,3.13c0.56,1.21,0.97,2.5,1.22,3.88l-7.82,1c-0.38-1.5-1.03-2.61-1.97-3.32
			c-0.94-0.71-2.45-1.06-4.54-1.06c-1.17,0-2.14,0.09-2.91,0.28c-0.77,0.19-1.38,0.43-1.81,0.72c-0.44,0.29-0.75,0.63-0.94,1
			c-0.19,0.38-0.28,0.73-0.28,1.06c0,1.04,0.32,1.81,0.97,2.28c0.65,0.48,1.91,0.89,3.79,1.22l4.13,0.69
			c2.29,0.38,4.19,0.86,5.69,1.44c1.5,0.58,2.7,1.3,3.6,2.16c0.9,0.86,1.52,1.87,1.88,3.03c0.35,1.17,0.53,2.52,0.53,4.07
			c0,3.09-1.17,5.56-3.5,7.41c-2.34,1.85-5.94,2.78-10.82,2.78c-1.96,0-3.83-0.18-5.6-0.53c-1.77-0.35-3.36-0.97-4.75-1.84
			c-1.4-0.88-2.54-2.04-3.44-3.5c-0.9-1.46-1.41-3.29-1.53-5.51H486.36z"/>
		<path class="st0" d="M550.24,62.22c-2.5,3.55-5.88,5.32-10.14,5.32c-4.59,0-8.01-1.54-10.26-4.63c-2.25-3.09-3.38-7.36-3.38-12.83
			c0-2.54,0.32-4.87,0.97-6.98c0.65-2.11,1.57-3.92,2.78-5.44c1.21-1.52,2.69-2.7,4.44-3.54c1.75-0.83,3.73-1.25,5.94-1.25
			c1.63,0,3.24,0.29,4.85,0.88c1.61,0.58,3.12,1.71,4.54,3.38V21.87h8.76v44.67h-8.51V62.22z M550.05,49.83c0-2.09-0.18-3.75-0.53-5
			c-0.36-1.25-0.93-2.27-1.72-3.07c-0.75-0.75-1.57-1.24-2.47-1.47c-0.9-0.23-1.78-0.34-2.66-0.34c-0.96,0-1.87,0.19-2.72,0.56
			c-0.86,0.37-1.61,0.96-2.25,1.75c-0.65,0.79-1.16,1.84-1.53,3.13c-0.38,1.29-0.56,2.84-0.56,4.63c0,1.96,0.18,3.6,0.53,4.91
			c0.35,1.31,0.84,2.38,1.47,3.19c0.63,0.81,1.35,1.4,2.19,1.75c0.83,0.36,1.73,0.53,2.69,0.53c2.09,0,3.8-0.6,5.13-1.81
			c0.83-0.83,1.45-1.85,1.85-3.03c0.4-1.19,0.59-2.72,0.59-4.6V49.83z"/>
		<path class="st0" d="M596.41,56.34c-0.58,3.67-2.05,6.46-4.41,8.35c-2.36,1.9-5.79,2.85-10.29,2.85c-5.42,0-9.5-1.5-12.23-4.51
			c-2.73-3-4.1-7.26-4.1-12.76c0-2.75,0.4-5.2,1.19-7.35c0.79-2.15,1.91-3.97,3.35-5.47c1.44-1.5,3.16-2.64,5.16-3.41
			c2-0.77,4.21-1.16,6.63-1.16c5.01,0,8.77,1.44,11.29,4.32c2.52,2.88,3.79,6.76,3.79,11.64v3.5h-22.65c0.08,2.63,0.75,4.68,2,6.16
			c1.25,1.48,3.13,2.22,5.63,2.22c3.46,0,5.51-1.46,6.13-4.38H596.41z M588.34,46.58c0-2.25-0.55-4-1.66-5.26
			c-1.11-1.25-2.83-1.88-5.16-1.88c-1.17,0-2.19,0.19-3.07,0.56s-1.62,0.89-2.22,1.53c-0.61,0.65-1.07,1.4-1.41,2.25
			c-0.33,0.86-0.52,1.78-0.56,2.78H588.34z"/>
		<path class="st0" d="M240.36,83.07h9.32v44.67h-9.32V83.07z"/>
		<path class="st0" d="M258.13,95.08h8.51v4.5c1.29-1.92,2.83-3.32,4.6-4.19c1.77-0.88,3.62-1.31,5.54-1.31
			c3.71,0,6.46,0.97,8.26,2.91c1.79,1.94,2.69,5,2.69,9.17v21.58h-8.76v-20.4c0-2.29-0.44-3.86-1.31-4.69
			c-0.88-0.83-2.04-1.25-3.5-1.25c-1.13,0-2.1,0.17-2.91,0.5c-0.81,0.33-1.57,0.81-2.28,1.44c-0.58,0.59-1.07,1.28-1.47,2.1
			c-0.4,0.81-0.59,1.7-0.59,2.66v19.65h-8.76V95.08z"/>
		<path class="st0" d="M297.29,101.9h-5.13v-6.82h5.13v-1.06c0-2,0.29-3.73,0.88-5.19c0.58-1.46,1.39-2.65,2.41-3.57
			c1.02-0.92,2.22-1.6,3.6-2.03c1.38-0.44,2.88-0.66,4.5-0.66c1.04,0,2.14,0.06,3.28,0.19c1.15,0.12,2.32,0.38,3.53,0.75l-1.19,6.38
			c-1.34-0.33-2.61-0.5-3.82-0.5c-1.13,0-2.15,0.32-3.07,0.97c-0.92,0.65-1.38,1.81-1.38,3.47v1.25h7.57v6.82h-7.57v25.84h-8.76
			V101.9z"/>
		<path class="st0" d="M333.33,128.74c-5.26,0-9.32-1.5-12.2-4.51c-2.88-3-4.32-7.3-4.32-12.89c0-2.67,0.39-5.08,1.16-7.23
			c0.77-2.15,1.88-3.96,3.32-5.44c1.44-1.48,3.18-2.62,5.22-3.41c2.04-0.79,4.32-1.19,6.82-1.19c2.54,0,4.84,0.4,6.88,1.19
			c2.04,0.79,3.79,1.93,5.22,3.41c1.44,1.48,2.53,3.3,3.28,5.44c0.75,2.15,1.13,4.56,1.13,7.23c0,2.71-0.39,5.14-1.16,7.29
			c-0.77,2.15-1.88,3.97-3.32,5.47c-1.44,1.5-3.18,2.65-5.22,3.44C338.1,128.35,335.83,128.74,333.33,128.74z M333.33,121.74
			c2.5,0,4.37-0.9,5.6-2.69c1.23-1.79,1.85-4.36,1.85-7.7c0-3.34-0.62-5.88-1.85-7.63c-1.23-1.75-3.1-2.63-5.6-2.63
			s-4.37,0.88-5.6,2.63c-1.23,1.75-1.85,4.3-1.85,7.63c0,3.38,0.6,5.95,1.81,7.73C328.91,120.85,330.78,121.74,333.33,121.74z"/>
		<path class="st0" d="M356.48,95.08h8.51v4.57c1.08-1.71,2.4-2.99,3.94-3.85c1.54-0.85,3.17-1.28,4.88-1.28
			c0.83,0,1.52,0.03,2.06,0.09c0.54,0.06,1.02,0.14,1.44,0.22l-1.06,7.95c-1-0.25-2.23-0.38-3.69-0.38c-0.96,0-1.88,0.12-2.75,0.34
			c-0.88,0.23-1.67,0.66-2.38,1.28c-0.75,0.67-1.3,1.42-1.66,2.25c-0.36,0.84-0.53,1.69-0.53,2.57v18.89h-8.76V95.08z"/>
		<path class="st0" d="M382.69,95.08h8.51v4.38c1.21-1.83,2.63-3.19,4.25-4.07c1.63-0.88,3.34-1.31,5.13-1.31
			c2.38,0,4.32,0.48,5.82,1.44c1.5,0.96,2.56,2.36,3.19,4.19c1.5-2,3.09-3.44,4.76-4.32c1.67-0.88,3.5-1.31,5.51-1.31
			c3.38,0,5.91,0.93,7.6,2.78c1.69,1.86,2.53,4.87,2.53,9.04v21.83h-8.76V107.1c0-1.17-0.1-2.12-0.31-2.85
			c-0.21-0.73-0.49-1.3-0.84-1.72c-0.35-0.42-0.78-0.71-1.28-0.88c-0.5-0.17-1.02-0.25-1.56-0.25c-0.88,0-1.68,0.15-2.41,0.44
			c-0.73,0.29-1.45,0.79-2.16,1.5c-0.59,0.59-1.05,1.25-1.41,2c-0.35,0.75-0.53,1.54-0.53,2.38v20.02h-8.76V107.1
			c0-1.17-0.1-2.12-0.31-2.85c-0.21-0.73-0.49-1.3-0.84-1.72c-0.35-0.42-0.78-0.71-1.28-0.88c-0.5-0.17-1.02-0.25-1.56-0.25
			c-0.88,0-1.68,0.15-2.41,0.44c-0.73,0.29-1.45,0.79-2.16,1.5c-0.58,0.59-1.05,1.28-1.41,2.1c-0.36,0.81-0.53,1.7-0.53,2.66v19.65
			h-8.76V95.08z"/>
		<path class="st0" d="M456.83,123.61c-1.29,1.46-2.74,2.65-4.35,3.57c-1.61,0.92-3.68,1.38-6.23,1.38c-1.46,0-2.85-0.19-4.16-0.56
			c-1.31-0.37-2.46-0.96-3.44-1.75c-0.98-0.79-1.76-1.8-2.35-3.03c-0.58-1.23-0.88-2.7-0.88-4.41c0-2.25,0.5-4.09,1.5-5.51
			c1-1.42,2.32-2.52,3.94-3.32c1.63-0.79,3.45-1.35,5.47-1.69c2.02-0.33,4.08-0.54,6.16-0.63l4.19-0.19v-1.63
			c0-2-0.55-3.38-1.66-4.13c-1.11-0.75-2.41-1.13-3.91-1.13c-3.46,0-5.44,1.31-5.94,3.94l-8.01-0.75c0.58-3.42,2.09-5.89,4.5-7.41
			c2.42-1.52,5.67-2.28,9.76-2.28c2.5,0,4.63,0.3,6.38,0.91c1.75,0.61,3.16,1.47,4.22,2.6c1.06,1.13,1.83,2.49,2.31,4.1
			c0.48,1.61,0.72,3.41,0.72,5.41v20.65h-8.26V123.61z M456.64,113.17l-3.88,0.19c-1.84,0.08-3.32,0.27-4.44,0.56
			c-1.13,0.29-1.99,0.66-2.6,1.09c-0.61,0.44-1.01,0.95-1.22,1.53c-0.21,0.59-0.31,1.23-0.31,1.94c0,1.09,0.38,1.94,1.13,2.56
			c0.75,0.63,1.79,0.94,3.13,0.94c2.25,0,4.09-0.52,5.51-1.56c0.79-0.58,1.44-1.32,1.94-2.22c0.5-0.9,0.75-2.01,0.75-3.35V113.17z"
			/>
		<path class="st0" d="M480.35,136.63c1.08,0.17,1.97,0.27,2.66,0.31c0.69,0.04,1.3,0.06,1.85,0.06c1.83,0,2.75-0.58,2.75-1.75
			c0-0.58-0.25-1.02-0.75-1.31c-0.5-0.29-1.42-0.44-2.75-0.44h-2.25l1.94-5.01c-4.3-0.67-7.44-2.51-9.42-5.54
			c-1.98-3.02-2.97-6.85-2.97-11.48c0-2.59,0.36-4.95,1.1-7.1c0.73-2.15,1.78-3.98,3.16-5.51c1.38-1.52,3.07-2.7,5.07-3.54
			c2-0.83,4.3-1.25,6.88-1.25c2.21,0,4.14,0.28,5.79,0.84c1.65,0.56,3.03,1.35,4.16,2.35c1.13,1,2,2.2,2.63,3.6
			c0.63,1.4,1.04,2.93,1.25,4.6l-8.82,1.19c-0.21-1.67-0.69-3.01-1.44-4.04c-0.75-1.02-2.04-1.53-3.88-1.53
			c-1.34,0-2.44,0.28-3.32,0.84c-0.88,0.56-1.57,1.32-2.1,2.28c-0.52,0.96-0.89,2.05-1.1,3.28c-0.21,1.23-0.31,2.51-0.31,3.85
			c0,1.38,0.1,2.69,0.31,3.94c0.21,1.25,0.56,2.36,1.06,3.32c0.5,0.96,1.19,1.72,2.06,2.28c0.88,0.56,1.98,0.84,3.32,0.84
			c1.75,0,3.11-0.5,4.07-1.5c0.96-1,1.52-2.44,1.69-4.32h8.88c-0.33,3.71-1.56,6.72-3.69,9.01c-2.13,2.3-5.34,3.55-9.63,3.75
			l-0.69,2c1.13,0.17,2.06,0.42,2.82,0.75c0.75,0.33,1.33,0.74,1.75,1.22c0.42,0.48,0.71,1,0.88,1.56c0.17,0.56,0.25,1.14,0.25,1.72
			c0,1.92-0.78,3.29-2.35,4.13c-1.56,0.83-3.66,1.25-6.29,1.25c-0.58,0-1.24-0.02-1.97-0.06c-0.73-0.04-1.6-0.15-2.6-0.31V136.63z"
			/>
		<path class="st0" d="M527.53,123.61c-1.29,1.46-2.74,2.65-4.35,3.57c-1.61,0.92-3.68,1.38-6.23,1.38c-1.46,0-2.85-0.19-4.16-0.56
			c-1.31-0.37-2.46-0.96-3.44-1.75c-0.98-0.79-1.76-1.8-2.35-3.03c-0.58-1.23-0.88-2.7-0.88-4.41c0-2.25,0.5-4.09,1.5-5.51
			c1-1.42,2.32-2.52,3.94-3.32c1.63-0.79,3.45-1.35,5.47-1.69c2.02-0.33,4.08-0.54,6.16-0.63l4.19-0.19v-1.63
			c0-2-0.55-3.38-1.66-4.13c-1.11-0.75-2.41-1.13-3.91-1.13c-3.46,0-5.44,1.31-5.94,3.94l-8.01-0.75c0.58-3.42,2.09-5.89,4.5-7.41
			c2.42-1.52,5.67-2.28,9.76-2.28c2.5,0,4.63,0.3,6.38,0.91c1.75,0.61,3.16,1.47,4.22,2.6c1.06,1.13,1.83,2.49,2.31,4.1
			c0.48,1.61,0.72,3.41,0.72,5.41v20.65h-8.26V123.61z M509.82,90.08c0-3.13,0.67-5.39,2-6.79c1.33-1.4,3.15-2.1,5.44-2.1
			c0.79,0,1.56,0.15,2.32,0.44c0.75,0.29,1.45,0.61,2.1,0.94c0.65,0.33,1.27,0.65,1.88,0.94c0.6,0.29,1.2,0.44,1.78,0.44
			c0.75,0,1.35-0.17,1.78-0.5c0.44-0.33,0.66-1,0.66-2h5.88c0,3.13-0.67,5.38-2,6.76c-1.34,1.38-3.13,2.07-5.38,2.07
			c-0.83,0-1.62-0.15-2.35-0.44c-0.73-0.29-1.43-0.61-2.1-0.97c-0.67-0.35-1.29-0.68-1.88-0.97c-0.58-0.29-1.15-0.44-1.69-0.44
			c-0.79,0-1.42,0.18-1.88,0.53c-0.46,0.36-0.69,1.05-0.69,2.1H509.82z M527.34,113.17l-3.88,0.19c-1.84,0.08-3.32,0.27-4.44,0.56
			c-1.13,0.29-1.99,0.66-2.6,1.09c-0.61,0.44-1.01,0.95-1.22,1.53c-0.21,0.59-0.31,1.23-0.31,1.94c0,1.09,0.38,1.94,1.13,2.56
			c0.75,0.63,1.79,0.94,3.13,0.94c2.25,0,4.09-0.52,5.51-1.56c0.79-0.58,1.44-1.32,1.94-2.22c0.5-0.9,0.75-2.01,0.75-3.35V113.17z"
			/>
		<path class="st0" d="M558.62,128.74c-5.26,0-9.32-1.5-12.2-4.51c-2.88-3-4.32-7.3-4.32-12.89c0-2.67,0.39-5.08,1.16-7.23
			c0.77-2.15,1.88-3.96,3.32-5.44c1.44-1.48,3.18-2.62,5.22-3.41c2.04-0.79,4.32-1.19,6.82-1.19c2.54,0,4.84,0.4,6.88,1.19
			c2.04,0.79,3.79,1.93,5.22,3.41c1.44,1.48,2.53,3.3,3.28,5.44c0.75,2.15,1.13,4.56,1.13,7.23c0,2.71-0.39,5.14-1.16,7.29
			c-0.77,2.15-1.88,3.97-3.32,5.47c-1.44,1.5-3.18,2.65-5.22,3.44C563.4,128.35,561.12,128.74,558.62,128.74z M558.62,121.74
			c2.5,0,4.37-0.9,5.6-2.69c1.23-1.79,1.85-4.36,1.85-7.7c0-3.34-0.62-5.88-1.85-7.63c-1.23-1.75-3.1-2.63-5.6-2.63
			s-4.37,0.88-5.6,2.63c-1.23,1.75-1.85,4.3-1.85,7.63c0,3.38,0.6,5.95,1.81,7.73C554.2,120.85,556.08,121.74,558.62,121.74z"/>
	</g>
	<g>
		<g>
			<path class="st0" d="M139.89,134.88c-1.35,2.86-3.29,5.62-5.82,8.28c-2.53,2.65-5.62,5.01-9.29,7.08
				c-3.66,2.06-7.88,3.7-12.63,4.93c-4.76,1.22-10.05,1.83-15.86,1.83c-8.76,0-16.55-1.33-23.37-3.98s-12.57-6.34-17.25-11.05
				c-4.67-4.72-8.23-10.38-10.68-17c-2.44-6.61-3.66-13.88-3.66-21.79c0-7.24,0.93-13.79,2.78-19.65
				c1.85-5.85,4.34-11.08,7.46-15.67c3.11-4.59,6.72-8.55,10.8-11.88c4.09-3.33,8.4-6.06,12.95-8.21c4.55-2.15,9.14-3.75,13.77-4.8
				c4.63-1.05,9.01-1.58,13.14-1.58c7.92,0,15.16,1.05,21.73,3.16c6.57,2.11,12.21,5.2,16.93,9.29c4.72,4.09,8.4,9.16,11.06,15.22
				c2.65,6.06,3.98,13.01,3.98,20.85c0,6.91-0.89,12.87-2.66,17.88c-1.77,5.01-4.09,9.12-6.95,12.32c-2.86,3.2-6.11,5.58-9.73,7.14
				c-3.62,1.56-7.29,2.34-10.99,2.34c-4.55,0-8.23-0.71-11.05-2.15c-2.82-1.43-4.7-4-5.62-7.71c-2.61,4.04-5.48,6.85-8.59,8.4
				c-3.12,1.56-6.49,2.34-10.11,2.34c-3.54,0-6.64-0.63-9.29-1.89c-2.66-1.26-4.89-3.01-6.7-5.24c-1.81-2.23-3.16-4.82-4.04-7.77
				c-0.89-2.95-1.33-6.15-1.33-9.6c0-5.31,0.74-10.19,2.21-14.66c1.47-4.46,3.5-8.32,6.06-11.56c2.57-3.24,5.64-5.77,9.22-7.58
				c3.58-1.81,7.48-2.72,11.69-2.72c2.78,0,5.47,0.63,8.08,1.89c2.61,1.27,4.84,3.37,6.7,6.32l1.14-6.82h15.79l-7.08,41.06
				c-0.08,0.42-0.13,0.97-0.13,1.64c0,2.95,1.3,4.42,3.92,4.42c2.02,0,4-0.55,5.94-1.64c1.94-1.09,3.66-2.8,5.18-5.12
				c1.51-2.32,2.74-5.26,3.66-8.84c0.92-3.58,1.39-7.81,1.39-12.7c0-6.23-0.95-11.63-2.84-16.17c-1.9-4.55-4.59-8.29-8.09-11.24
				c-3.5-2.95-7.73-5.14-12.7-6.57c-4.97-1.43-10.57-2.15-16.8-2.15c-6.32,0-12.3,1.16-17.94,3.47c-5.64,2.32-10.6,5.6-14.85,9.85
				c-4.25,4.25-7.64,9.41-10.17,15.48c-2.53,6.06-3.79,12.85-3.79,20.34c0,6.06,0.84,11.67,2.53,16.8c1.68,5.14,4.25,9.6,7.71,13.39
				c3.45,3.79,7.77,6.74,12.95,8.84c5.18,2.11,11.26,3.16,18.26,3.16c6.74,0,12.26-0.95,16.55-2.84c4.3-1.89,7.67-4.28,10.11-7.14
				H139.89z M108.56,97.48c0.33-2.02,0.48-3.96,0.44-5.81c-0.04-1.85-0.38-3.47-1.01-4.86c-0.63-1.39-1.6-2.51-2.91-3.35
				c-1.31-0.84-3.01-1.26-5.12-1.26c-1.85,0-3.64,0.46-5.37,1.39c-1.73,0.93-3.24,2.3-4.55,4.1c-1.31,1.81-2.36,4.11-3.16,6.89
				c-0.8,2.78-1.2,6.02-1.2,9.73c0,4.29,0.78,7.45,2.34,9.47c1.56,2.02,3.56,3.03,6,3.03c2.27,0,4.21-0.42,5.82-1.26
				c1.6-0.84,2.95-1.96,4.04-3.35c1.09-1.39,1.96-3.01,2.59-4.87c0.63-1.85,1.12-3.79,1.45-5.81L108.56,97.48z"/>
		</g>
	</g>
	<g>
		<path class="st0" d="M3.39,198.77l13.16-49.12c-8.73-14.87-13.34-31.84-13.34-49.17c0-53.62,43.62-97.25,97.25-97.25
			s97.25,43.63,97.25,97.25s-43.62,97.25-97.25,97.25c-16.55,0-32.88-4.25-47.31-12.29L3.39,198.77z M53.91,179.6l0.97,0.56
			c13.84,7.93,29.6,12.13,45.58,12.13c50.62,0,91.81-41.18,91.81-91.81S151.09,8.67,100.46,8.67S8.66,49.86,8.66,100.48
			c0,16.73,4.55,33.1,13.15,47.36l0.6,0.99l-11.32,42.24L53.91,179.6z"/>
	</g>
</g>
</svg>
