<?xml version="1.0" encoding="utf-8"?>
<!-- Generator: Adobe Illustrator 27.7.0, SVG Export Plug-In . SVG Version: 6.00 Build 0)  -->
<svg version="1.1" id="Camada_1" xmlns="http://www.w3.org/2000/svg" xmlns:xlink="http://www.w3.org/1999/xlink" x="0px" y="0px"
	 viewBox="0 0 386 150" style="enable-background:new 0 0 386 150;" xml:space="preserve">
<style type="text/css">
	.st0{fill:#FFFFFF;}
</style>
<g>
	<g>
		<polygon class="st0" points="71.85,81.77 71.85,81.77 71.85,81.77 		"/>
		<path class="st0" d="M24,15.51v77.02c0,26.43,21.43,47.85,47.85,47.85h0c26.43,0,47.85-21.42,47.85-47.85V15.51H24z M89.09,58.86
			c-0.17-1.81,0.43-3.68,1.82-5.07c0,0,0,0,0.01-0.01c2.04-2.04,5.13-2.39,7.53-1.06c0,0,0.01,0.01,0.01,0.01
			c0.33,0.22,0.65,0.45,0.98,0.67c0.01,0,0.02,0.01,0.02,0.02c0.13,0.11,0.26,0.23,0.39,0.36l0,0c2.47,2.47,2.47,6.47,0,8.94
			l-0.01,0.01c-1.39,1.39-3.26,1.99-5.08,1.81c-1.06-0.1-2.12,0.2-2.92,0.91l-9.73,8.74c-0.74,0.74-1.94,0.74-2.68,0l0,0
			c-0.74-0.74-0.74-1.94,0-2.68l8.74-9.74C88.89,60.98,89.19,59.92,89.09,58.86z M65.47,31.13c3.53-3.54,9.26-3.54,12.8,0
			c3.06,3.06,3.47,7.75,1.24,11.25c-0.34,0.55-0.76,1.07-1.24,1.55c-0.26,0.26-0.53,0.5-0.82,0.72c-0.12,0.1-0.25,0.2-0.38,0.28
			l-0.66,0.46c-1.19,0.84-1.91,2.18-1.96,3.63l-0.75,20.54v0.01c-0.19,0.83-0.94,1.46-1.84,1.46c0,0,0,0-0.01,0
			c-0.92,0-1.69-0.66-1.86-1.53v-0.01l-0.73-20.49c-0.05-1.45-0.78-2.79-1.96-3.63l-0.63-0.45c0,0,0,0,0,0
			c-0.13-0.09-0.25-0.18-0.38-0.28c-0.29-0.22-0.56-0.46-0.82-0.72c-0.49-0.49-0.91-1.01-1.25-1.57
			C62,38.87,62.41,34.19,65.47,31.13z M76.14,81.77c0,2.37-1.92,4.29-4.29,4.29s-4.29-1.92-4.29-4.29c0-1.18,0.48-2.25,1.25-3.02
			c0.78-0.78,1.85-1.26,3.04-1.26c1.18,0,2.25,0.48,3.02,1.25C75.66,79.51,76.14,80.59,76.14,81.77z M43.84,53.78L43.84,53.78
			c0.1-0.1,0.2-0.19,0.3-0.28c0,0,0,0,0.01,0c0.4-0.29,0.81-0.57,1.22-0.84c2.39-1.25,5.41-0.88,7.41,1.13c0,0,0,0,0.01,0.01
			c1.38,1.39,1.99,3.26,1.81,5.07c-0.1,1.06,0.2,2.12,0.91,2.92l8.75,9.73c0.74,0.74,0.74,1.94,0,2.68l0,0
			c-0.74,0.74-1.94,0.74-2.68,0l-9.75-8.74c-0.79-0.71-1.86-1.01-2.92-0.91c-1.81,0.18-3.69-0.43-5.08-1.81l-0.01-0.01
			C41.37,60.25,41.37,56.25,43.84,53.78z M34.32,81.28c0.24-2.15,2.14-3.81,4.3-3.78c0.56,0.01,1.09,0.12,1.58,0.32
			c0.34,0.14,0.66,0.32,0.96,0.54c0.5,0.38,1.1,0.61,1.73,0.65l16.34,0.88h0l0.21,0.01c0.95,0.1,1.69,0.91,1.69,1.88
			c0,1.05-0.85,1.89-1.89,1.89l-16.36,0.88c-0.63,0.03-1.22,0.28-1.73,0.66c-0.71,0.53-1.6,0.85-2.57,0.85
			c-0.34,0-0.67-0.04-0.99-0.12C35.54,85.46,34.07,83.52,34.32,81.28z M105.11,103.11c-0.02,0.07-0.04,0.13-0.07,0.2
			c-0.35,1.08-0.75,2.14-1.2,3.18L80.77,99l14.23,19.62c-0.84,0.76-1.73,1.46-2.64,2.13c-0.93,0.67-1.89,1.3-2.88,1.88l-14.22-19.6
			l0.01,24.21c-0.66,0.07-1.33,0.12-2,0.14c-0.47,0.02-0.95,0.03-1.43,0.03c-0.48,0-0.96-0.01-1.44-0.03
			c-0.67-0.03-1.33-0.07-1.99-0.14v-24.17l-14.2,19.56c-0.99-0.58-1.95-1.21-2.88-1.88c-0.93-0.68-1.82-1.4-2.68-2.16l14.23-19.56
			l-23.01,7.49c-0.46-1.05-0.87-2.12-1.22-3.21c-0.03-0.09-0.06-0.18-0.09-0.27c-0.32-1-0.59-2.02-0.81-3.06l26.45-8.58
			c3.05-0.99,6.32,0.68,7.31,3.72l0.32,0.98l0.31-0.97c0.99-3.05,4.27-4.72,7.32-3.73l26.46,8.58
			C105.72,101.05,105.44,102.09,105.11,103.11z M106.13,85.94c-0.32,0.08-0.65,0.12-1,0.12h-0.02c-0.96,0-1.84-0.32-2.55-0.85
			c-0.5-0.38-1.09-0.62-1.72-0.66l-16.36-0.88h0l-0.21-0.01c-0.95-0.1-1.69-0.91-1.69-1.88c0-1.05,0.85-1.89,1.89-1.89L100.82,79
			c0.63-0.03,1.23-0.27,1.73-0.64c0.29-0.22,0.62-0.41,0.96-0.54c0.5-0.21,1.04-0.32,1.61-0.32h0.02c1.85,0,3.53,1.17,4.08,2.94
			C110,83,108.42,85.4,106.13,85.94z"/>
	</g>
	<g>
		<path class="st0" d="M349.03,23.98c-5.41-6.44-14.44-9.71-26.83-9.71c-12.39,0-21.42,3.27-26.83,9.71
			c-5.15,6.12-7.75,15-7.75,26.38v8.17c0,11.47,2.57,20.34,7.65,26.38c5.41,6.44,14.47,9.71,26.94,9.71
			c12.39,0,21.42-3.27,26.83-9.71c5.15-6.12,7.75-15,7.75-26.38v-8.17C356.78,38.98,354.18,30.11,349.03,23.98z M342.56,58.53
			c0,7.68-1.49,13.52-4.31,16.88c-2.51,2.99-8.21,4.64-16.05,4.64c-8.02,0-13.61-1.6-16.16-4.64l0,0
			c-2.75-3.27-4.21-9.11-4.21-16.88v-8.17c0-7.68,1.49-13.52,4.31-16.88c2.51-2.99,8.21-4.64,16.05-4.64c7.95,0,13.5,1.6,16.05,4.64
			c2.82,3.36,4.31,9.19,4.31,16.88V58.53z"/>
	</g>
	<g>
		<path class="st0" d="M357.54,9.58c2.51,0,4.46,1.96,4.46,4.4s-1.95,4.4-4.46,4.4c-2.51,0-4.46-1.96-4.46-4.4
			S355.03,9.58,357.54,9.58z M360.93,13.98c0-1.9-1.53-3.45-3.39-3.45c-1.86,0-3.39,1.55-3.39,3.45s1.53,3.45,3.39,3.45
			C359.4,17.43,360.93,15.88,360.93,13.98z M355.88,11.72h1.96c0.95,0,1.61,0.65,1.61,1.49c0,0.46-0.21,0.74-0.42,0.93
			c-0.13,0.11-0.26,0.2-0.42,0.26l1.01,1.84h-1.25l-0.77-1.55H357v1.55h-1.13V11.72z M357.78,13.68c0.32,0,0.48-0.15,0.48-0.48
			c0-0.32-0.15-0.48-0.48-0.48H357v0.95H357.78z"/>
	</g>
	<path class="st0" d="M203.1,15.51h-13.53c0.04,0.76,0.06,45.62,0.06,45.62c0,7.13-1.42,12.55-4.1,15.66
		c-2.39,2.78-7.81,4.31-15.26,4.31c-7.45,0-12.87-1.53-15.26-4.31c-2.68-3.12-4.1-8.53-4.1-15.66c0,0,0.02-44.87,0.06-45.62h-13.53
		c-0.03,0.77-0.05,45.62-0.05,45.62c0,10.56,2.48,18.8,7.37,24.48c5.14,5.98,13.72,9.01,25.51,9.01c11.78,0,20.36-3.03,25.51-9.01
		c4.89-5.68,7.37-13.92,7.37-24.48C203.14,61.13,203.12,16.27,203.1,15.51z"/>
	<path class="st0" d="M263.01,15.51V76.2c0,1.53,0.27,3.05,0.8,4.49l0,0l-0.7,0.26l-0.17-0.47l-21.05-57.5
		c-2.46-6.41-4.01-8.7-13.43-8.7c-13.53,0-13.53,6.9-13.53,13.78v65.34h13.98V32.7c0-1.53-0.27-3.05-0.8-4.49l0-0.01l0.7-0.26
		l0.1,0.27l0.35,0.96l1.21,3.3l19.56,53.45c2.46,6.41,4.01,8.7,13.43,8.7c13.53,0,13.53-6.9,13.53-13.78V15.51H263.01z"/>
	<path class="st0" d="M138.2,115c0.23,0.27,0.51,0.53,0.84,0.74c0.55,0.37,1.35,0.72,2.38,0.72c1.56,0,2.24-0.68,2.24-1.56
		c0-2.32-6.83-1.29-6.83-6.05c0-2.15,1.85-4,4.98-4c1.5,0,2.67,0.47,3.44,0.94c0.45,0.27,0.82,0.59,1.15,0.92l-1.95,1.95
		c-0.21-0.21-0.43-0.41-0.68-0.59c-0.45-0.29-1.07-0.59-1.85-0.59c-1.48,0-2.05,0.59-2.05,1.37c0,2.32,6.83,1.29,6.83,6.05
		c0,2.24-1.95,4.2-5.17,4.2c-1.78,0-3.08-0.53-3.96-1.07c-0.53-0.31-0.96-0.66-1.31-1.07L138.2,115z"/>
	<path class="st0" d="M157.71,105.14h3.32l5.27,13.66h-3.12l-1.17-3.12h-5.27l-1.17,3.12h-3.12L157.71,105.14z M155.86,103.58
		c0-2.05,0.86-2.93,2.09-2.93c1.33,0,1.72,1.07,2.5,1.07c0.39,0,0.68-0.29,0.68-1.07h1.66c0,2.05-0.88,2.93-2.05,2.93
		c-1.37,0-1.66-0.98-2.54-0.98c-0.39,0-0.68,0.29-0.68,0.98H155.86z M161.03,113.05l-1.62-4.49h-0.08l-1.62,4.49H161.03z"/>
	<path class="st0" d="M179.37,104.85c4.22,0,7.42,3.22,7.42,7.12c0,3.9-3.2,7.12-7.42,7.12c-4.22,0-7.42-3.22-7.42-7.12
		C171.96,108.07,175.16,104.85,179.37,104.85z M179.37,116.37c2.44,0,4.39-1.95,4.39-4.39c0-2.44-1.95-4.39-4.39-4.39
		c-2.44,0-4.39,1.95-4.39,4.39C174.98,114.41,176.93,116.37,179.37,116.37z"/>
	<path class="st0" d="M203.67,105.14h2.93v10.93h6.34v2.73h-9.27V105.14z"/>
	<path class="st0" d="M225.92,104.85c4.22,0,7.42,3.22,7.42,7.12c0,3.9-3.2,7.12-7.42,7.12c-4.22,0-7.42-3.22-7.42-7.12
		C218.5,108.07,221.7,104.85,225.92,104.85z M225.92,116.37c2.44,0,4.39-1.95,4.39-4.39c0-2.44-1.95-4.39-4.39-4.39
		c-2.44,0-4.39,1.95-4.39,4.39C221.53,114.41,223.48,116.37,225.92,116.37z"/>
	<path class="st0" d="M240.56,105.14h2.93v8c0,1.95,1.25,3.22,3.03,3.22c1.78,0,3.03-1.27,3.03-3.22v-8h2.93v8
		c0,3.51-2.44,5.95-5.95,5.95c-3.51,0-5.95-2.44-5.95-5.95V105.14z"/>
	<path class="st0" d="M260.95,105.14H267c2.93,0,4.78,1.85,4.78,4.59c0,1.56-0.57,2.58-1.17,3.18c-0.33,0.35-0.72,0.62-1.17,0.82
		l2.83,5.07h-3.22l-2.44-4.49h-2.73v4.49h-2.93V105.14z M266.9,111.58c1.09,0,1.85-0.76,1.85-1.85s-0.76-1.85-1.85-1.85h-3.03v3.71
		H266.9z"/>
	<path class="st0" d="M279.78,105.14h10.15v2.73h-7.22v2.64h5.66v2.63h-5.66v2.93h7.42v2.73h-10.34V105.14z"/>
	<path class="st0" d="M297.83,105.14h2.63l6.64,8.49v-8.49h2.93v13.66h-2.63l-6.64-8.49v8.49h-2.93V105.14z"/>
	<path class="st0" d="M344.38,104.85c4.22,0,7.42,3.22,7.42,7.12c0,3.9-3.2,7.12-7.42,7.12c-4.22,0-7.42-3.22-7.42-7.12
		C336.96,108.07,340.16,104.85,344.38,104.85z M344.38,116.37c2.44,0,4.39-1.95,4.39-4.39c0-2.44-1.95-4.39-4.39-4.39
		s-4.39,1.95-4.39,4.39C339.99,114.41,341.94,116.37,344.38,116.37z"/>
	<path class="st0" d="M137.61,126.47h4.98c4.2,0,7.22,3.03,7.22,6.83c0,3.81-3.03,6.83-7.22,6.83h-4.98V126.47z M142.59,137.4
		c2.44,0,4.2-1.76,4.2-4.1c0-2.34-1.76-4.1-4.2-4.1h-2.05v8.2H142.59z"/>
	<path class="st0" d="M163.27,126.17c4.22,0,7.42,3.22,7.42,7.12c0,3.9-3.2,7.12-7.42,7.12c-4.22,0-7.42-3.22-7.42-7.12
		C155.86,129.39,159.06,126.17,163.27,126.17z M163.27,137.69c2.44,0,4.39-1.95,4.39-4.39c0-2.44-1.95-4.39-4.39-4.39
		c-2.44,0-4.39,1.95-4.39,4.39C158.88,135.74,160.83,137.69,163.27,137.69z"/>
	<path class="st0" d="M194.11,126.17c4.22,0,7.42,3.22,7.42,7.12c0,3.9-3.2,7.12-7.42,7.12c-4.22,0-7.42-3.22-7.42-7.12
		C186.69,129.39,189.89,126.17,194.11,126.17z M194.11,137.69c2.44,0,4.39-1.95,4.39-4.39c0-2.44-1.95-4.39-4.39-4.39
		c-2.44,0-4.39,1.95-4.39,4.39C189.72,135.74,191.67,137.69,194.11,137.69z"/>
	<path class="st0" d="M209.23,126.47h10.15v2.73h-7.22v2.64h5.66v2.63h-5.66v2.93h7.42v2.73h-10.34V126.47z"/>
	<path class="st0" d="M227.87,136.32c0.23,0.27,0.51,0.53,0.84,0.74c0.55,0.37,1.35,0.72,2.38,0.72c1.56,0,2.24-0.68,2.24-1.56
		c0-2.32-6.83-1.29-6.83-6.05c0-2.15,1.85-4,4.98-4c1.5,0,2.67,0.47,3.44,0.94c0.45,0.27,0.82,0.59,1.15,0.92l-1.95,1.95
		c-0.21-0.21-0.43-0.41-0.68-0.59c-0.45-0.29-1.07-0.59-1.85-0.59c-1.48,0-2.05,0.59-2.05,1.37c0,2.32,6.83,1.29,6.83,6.05
		c0,2.24-1.95,4.2-5.17,4.2c-1.78,0-3.08-0.53-3.96-1.07c-0.53-0.31-0.96-0.66-1.31-1.07L227.87,136.32z"/>
	<path class="st0" d="M245.53,129.2h-3.9v-2.73h10.73v2.73h-3.9v10.93h-2.93V129.2z"/>
	<path class="st0" d="M259.19,126.47h10.15v2.73h-7.22v2.64h5.66v2.63h-5.66v2.93h7.42v2.73h-10.34V126.47z"/>
	<rect x="321.22" y="120.38" class="st0" width="6.32" height="2.53"/>
	<path class="st0" d="M329.06,114.41c-0.27,0.37-0.61,0.68-1,0.98c-0.68,0.49-1.64,0.98-2.91,0.98c-2.44,0-4.39-1.95-4.39-4.39
		c0-2.44,1.95-4.39,4.39-4.39c1.23,0,2.17,0.49,2.81,0.98c0.37,0.29,0.7,0.61,1,0.98l1.95-1.95c-0.41-0.51-0.88-0.96-1.44-1.37
		c-0.96-0.68-2.42-1.37-4.31-1.37c-4.22,0-7.42,3.22-7.42,7.12c0,2.08,0.97,4.07,2.56,5.4c1.87,1.56,4.63,2.1,6.96,1.44
		c0.85-0.24,1.65-0.63,2.36-1.16c0.53-0.39,1-0.82,1.39-1.29L329.06,114.41z"/>
</g>
</svg>
