<?xml version="1.0" encoding="utf-8"?>
<!-- Generator: Adobe Illustrator 27.7.0, SVG Export Plug-In . SVG Version: 6.00 Build 0)  -->
<svg version="1.1" id="Camada_1" xmlns="http://www.w3.org/2000/svg" xmlns:xlink="http://www.w3.org/1999/xlink" x="0px" y="0px"
	 viewBox="0 0 386 150" style="enable-background:new 0 0 386 150;" xml:space="preserve">
<style type="text/css">
	.st0{fill:#FFFFFF;}
</style>
<g>
	<g>
		<g>
			<path class="st0" d="M357.87,25.72c-5.89-7.01-15.73-10.57-29.22-10.57c-13.5,0-23.33,3.56-29.22,10.57
				c-5.6,6.67-8.45,16.34-8.45,28.73v8.89c0,12.49,2.8,22.16,8.33,28.73c5.89,7.02,15.76,10.57,29.34,10.57
				c13.5,0,23.33-3.56,29.22-10.57c5.6-6.67,8.45-16.34,8.45-28.73v-8.89C366.32,42.06,363.48,32.39,357.87,25.72z M350.83,63.35
				c0,8.37-1.62,14.73-4.7,18.38c-2.74,3.26-8.95,5.05-17.48,5.05c-8.74,0-14.82-1.75-17.6-5.05l0,0c-3-3.57-4.58-9.92-4.58-18.38
				v-8.89c0-8.37,1.62-14.73,4.7-18.38c2.74-3.26,8.95-5.05,17.48-5.05c8.66,0,14.7,1.75,17.48,5.05c3.07,3.66,4.7,10.01,4.7,18.38
				V63.35z"/>
		</g>
		<g>
			<path class="st0" d="M151.13,134.92c-0.76,0.94-1.62,1.77-2.67,2.52c-1.77,1.26-4.33,2.52-7.79,2.52
				c-7.57,0-13.34-5.77-13.34-12.98c0-7.21,5.77-12.98,13.34-12.98c3.46,0,5.99,1.19,7.72,2.45c0.97,0.72,1.84,1.51,2.56,2.42
				l-2.52,2.52c-0.51-0.69-1.15-1.33-1.91-1.88c-1.3-0.97-3.25-1.91-5.84-1.91c-5.23,0-9.38,4.15-9.38,9.38s4.15,9.38,9.38,9.38
				c2.6,0,4.58-0.97,5.91-1.98c0.79-0.58,1.48-1.23,2.02-1.98L151.13,134.92z"/>
			<path class="st0" d="M165.19,114.36h3.97V125h12.44v-10.64h3.97v25.25h-3.97v-11h-12.44v11h-3.97V114.36z"/>
			<path class="st0" d="M209.02,114.36h4.33l10.1,25.25h-4.15l-2.52-6.49h-11.18l-2.52,6.49h-4.15L209.02,114.36z M215.33,129.51
				l-4.15-10.46l-4.15,10.46H215.33z"/>
			<path class="st0" d="M236.79,114.36h10.1c4.9,0,8.48,3.61,8.48,8.12c0,4.51-3.57,8.11-8.48,8.11h-6.13v9.02h-3.97V114.36z
				 M246.89,126.98c2.52,0,4.51-1.98,4.51-4.51s-1.98-4.51-4.51-4.51h-6.13v9.02H246.89z"/>
			<path class="st0" d="M269.97,114.36h17.85v3.79h-13.89v6.49h11v3.79h-11v7.39h14.25v3.79h-18.21V114.36z"/>
			<path class="st0" d="M324.25,134.92c-0.76,0.94-1.62,1.77-2.67,2.52c-1.77,1.26-4.33,2.52-7.79,2.52
				c-7.57,0-13.34-5.77-13.34-12.98c0-7.21,5.77-12.98,13.34-12.98c3.46,0,5.99,1.19,7.72,2.45c0.97,0.72,1.84,1.51,2.56,2.42
				l-2.52,2.52c-0.51-0.69-1.15-1.33-1.91-1.88c-1.3-0.97-3.25-1.91-5.84-1.91c-5.23,0-9.38,4.15-9.38,9.38s4.15,9.38,9.38,9.38
				c2.6,0,4.58-0.97,5.91-1.98c0.79-0.58,1.48-1.23,2.02-1.98L324.25,134.92z"/>
			<path class="st0" d="M349.32,114c7.57,0,13.34,5.77,13.34,12.98c0,7.21-5.77,12.98-13.34,12.98s-13.34-5.77-13.34-12.98
				C335.97,119.77,341.74,114,349.32,114z M349.32,136.36c5.23,0,9.38-4.15,9.38-9.38s-4.15-9.38-9.38-9.38s-9.38,4.15-9.38,9.38
				S344.09,136.36,349.32,136.36z M350.54,106.07h3.79l-3.79,5.05h-2.7L350.54,106.07z"/>
		</g>
		<g>
			<path class="st0" d="M367.14,10.03c2.73,0,4.86,2.14,4.86,4.79s-2.12,4.79-4.86,4.79c-2.73,0-4.86-2.14-4.86-4.79
				S364.41,10.03,367.14,10.03z M370.83,14.83c0-2.07-1.67-3.76-3.69-3.76s-3.69,1.68-3.69,3.76s1.67,3.76,3.69,3.76
				S370.83,16.9,370.83,14.83z M365.33,12.36h2.14c1.04,0,1.75,0.71,1.75,1.62c0,0.51-0.23,0.8-0.45,1.01
				c-0.14,0.12-0.29,0.22-0.45,0.28l1.1,2.01h-1.36l-0.84-1.68h-0.65v1.68h-1.23V12.36z M367.4,14.5c0.35,0,0.52-0.17,0.52-0.52
				c0-0.35-0.17-0.52-0.52-0.52h-0.84v1.04H367.4z"/>
		</g>
		<path class="st0" d="M198.94,16.49H184.2l0.06,49.69c0,7.77-1.54,13.67-4.46,17.06c-2.6,3.02-8.5,4.69-16.62,4.69
			c-8.11,0-14.01-1.67-16.62-4.69c-2.92-3.39-4.46-9.29-4.46-17.06l0.06-49.69h-14.73l-0.05,49.69c0,11.5,2.7,20.47,8.03,26.66
			c5.6,6.51,14.95,9.81,27.78,9.81c12.83,0,22.18-3.3,27.78-9.81c5.33-6.19,8.03-15.16,8.03-26.66L198.94,16.49z"/>
		<path class="st0" d="M264.19,16.49v66.1c0,1.67,0.29,3.33,0.87,4.89l0,0l-0.76,0.28l-0.19-0.51l-22.92-62.63
			c-2.68-6.98-4.37-9.47-14.62-9.47c-14.73,0-14.73,7.52-14.73,15v71.16h15.22v-66.1c0-1.67-0.29-3.33-0.87-4.89l0-0.01l0.76-0.28
			l0.11,0.29l0.38,1.05l1.32,3.6l21.31,58.21c2.68,6.98,4.37,9.47,14.62,9.47c14.73,0,14.73-7.52,14.73-15V16.49H264.19z"/>
	</g>
	<g>
		<g>
			<polygon class="st0" points="61.2,81.61 61.2,81.6 61.19,81.61 			"/>
			<path class="st0" d="M14,16.25v75.96c0,26.07,21.13,47.2,47.2,47.2h0c26.07,0,47.2-21.13,47.2-47.2V16.25H14z M78.2,59
				c-0.17-1.79,0.42-3.63,1.79-5c0,0,0,0,0.01-0.01c2.01-2.01,5.06-2.36,7.43-1.04c0,0,0.01,0.01,0.01,0.01
				c0.32,0.22,0.65,0.44,0.96,0.66c0.01,0,0.02,0.01,0.02,0.02c0.13,0.11,0.26,0.23,0.38,0.35l0,0c2.44,2.43,2.44,6.38,0,8.82
				l-0.01,0.01c-1.37,1.37-3.22,1.96-5.01,1.79c-1.05-0.1-2.1,0.19-2.88,0.9l-9.59,8.62c-0.73,0.73-1.91,0.73-2.64,0l0,0
				c-0.73-0.73-0.73-1.91,0-2.64l8.62-9.6C78,61.1,78.3,60.05,78.2,59z M54.9,31.66c3.48-3.49,9.14-3.49,12.62,0
				c3.01,3.01,3.42,7.64,1.22,11.09c-0.34,0.54-0.75,1.06-1.22,1.53c-0.26,0.26-0.53,0.5-0.81,0.71c-0.12,0.1-0.25,0.19-0.38,0.28
				l-0.65,0.46c-1.17,0.82-1.89,2.15-1.94,3.58l-0.74,20.26v0.01c-0.19,0.82-0.93,1.44-1.81,1.44c0,0,0,0-0.01,0
				c-0.91,0-1.67-0.65-1.83-1.51v-0.01L58.64,49.3c-0.05-1.43-0.77-2.75-1.93-3.58l-0.63-0.44c0,0,0,0,0,0
				c-0.13-0.08-0.25-0.18-0.37-0.28c-0.28-0.22-0.55-0.45-0.81-0.71c-0.48-0.48-0.89-1-1.24-1.55
				C51.48,39.29,51.89,34.67,54.9,31.66z M65.43,81.61c0,2.33-1.89,4.23-4.23,4.23c-2.33,0-4.23-1.89-4.23-4.23
				c0-1.16,0.47-2.22,1.23-2.98c0.77-0.77,1.83-1.24,2.99-1.24c1.16,0,2.22,0.47,2.98,1.23C64.95,79.38,65.43,80.44,65.43,81.61z
				 M33.57,54L33.57,54c0.1-0.1,0.19-0.19,0.3-0.28c0,0,0,0,0.01,0c0.4-0.28,0.8-0.56,1.2-0.83c2.35-1.24,5.33-0.87,7.31,1.11
				c0,0,0,0,0.01,0.01c1.36,1.37,1.96,3.22,1.79,5c-0.1,1.05,0.2,2.09,0.9,2.88l8.63,9.6c0.73,0.73,0.73,1.91,0,2.64l0,0
				c-0.73,0.73-1.91,0.73-2.64,0l-9.61-8.62c-0.78-0.7-1.83-1-2.88-0.9c-1.79,0.18-3.64-0.42-5.01-1.79l-0.01-0.01
				C31.13,60.38,31.13,56.43,33.57,54z M24.18,81.12c0.24-2.12,2.11-3.76,4.24-3.73c0.55,0.01,1.08,0.12,1.56,0.32
				c0.34,0.14,0.66,0.32,0.94,0.54c0.49,0.37,1.08,0.6,1.7,0.64l16.11,0.87h0l0.2,0.01c0.94,0.1,1.67,0.89,1.67,1.86
				c0,1.03-0.84,1.87-1.87,1.87l-16.14,0.87c-0.62,0.03-1.2,0.28-1.7,0.65c-0.7,0.53-1.58,0.84-2.53,0.84
				c-0.34,0-0.66-0.04-0.98-0.11C25.39,85.24,23.93,83.33,24.18,81.12z M94,102.65c-0.02,0.06-0.04,0.13-0.06,0.19
				c-0.34,1.07-0.74,2.11-1.19,3.13L69.99,98.6l14.04,19.35c-0.83,0.74-1.7,1.44-2.6,2.1c-0.91,0.66-1.86,1.29-2.84,1.86
				l-14.02-19.33l0.01,23.88c-0.65,0.07-1.31,0.11-1.97,0.14c-0.47,0.02-0.94,0.03-1.41,0.03c-0.48,0-0.95-0.01-1.42-0.03
				c-0.66-0.03-1.31-0.07-1.97-0.14v-23.84l-14,19.29c-0.98-0.57-1.92-1.19-2.84-1.86c-0.92-0.67-1.8-1.38-2.64-2.13l14.03-19.29
				l-22.69,7.39c-0.45-1.03-0.86-2.09-1.21-3.17c-0.03-0.09-0.06-0.18-0.08-0.26c-0.31-0.99-0.58-1.99-0.8-3.01l26.09-8.46
				c3.01-0.97,6.23,0.67,7.21,3.67l0.31,0.96l0.31-0.95c0.98-3.01,4.21-4.66,7.22-3.68l26.1,8.46
				C94.6,100.62,94.32,101.64,94,102.65z M95,85.72c-0.31,0.08-0.65,0.11-0.98,0.11H94c-0.94,0-1.81-0.32-2.51-0.84
				c-0.5-0.37-1.08-0.62-1.7-0.65l-16.14-0.87h0l-0.2-0.01c-0.94-0.1-1.67-0.89-1.67-1.86c0-1.03,0.84-1.87,1.87-1.87l16.12-0.87
				c0.62-0.03,1.21-0.26,1.7-0.64c0.29-0.22,0.61-0.4,0.95-0.54c0.49-0.2,1.02-0.31,1.58-0.32h0.02c1.82,0,3.49,1.15,4.02,2.9
				C98.82,82.82,97.26,85.18,95,85.72z"/>
		</g>
	</g>
</g>
</svg>
